<?xml version="1.0" encoding="UTF-8"?>
<svg version="1.1" xmlns="http://www.w3.org/2000/svg" width="499" height="499">
<path d="M0 0 C1.93588373 -0.00445668 1.93588373 -0.00445668 3.91087621 -0.0090034 C7.48233509 -0.01704178 11.05377383 -0.0188612 14.62524068 -0.01960087 C18.48159595 -0.02145697 22.3379409 -0.02900712 26.19429016 -0.03573608 C34.62223139 -0.04929779 43.05016785 -0.05534085 51.47811818 -0.05974674 C56.74493908 -0.06251302 62.01175814 -0.06675109 67.2785778 -0.07125092 C81.87319479 -0.08344112 96.46781032 -0.09374069 111.06243229 -0.09712601 C112.46262987 -0.09745536 112.46262987 -0.09745536 113.89111426 -0.09779136 C115.29458233 -0.09811878 115.29458233 -0.09811878 116.7264033 -0.09845281 C118.62224392 -0.09889627 120.51808455 -0.09934283 122.41392517 -0.09979248 C123.82451621 -0.10012463 123.82451621 -0.10012463 125.26360404 -0.10046348 C140.49209283 -0.10440922 155.72053371 -0.12185751 170.949004 -0.145152 C186.59996686 -0.16889865 202.25090572 -0.18132938 217.90188688 -0.18249393 C226.6827874 -0.18340886 235.46362548 -0.18911532 244.24450874 -0.20731354 C251.72345448 -0.22275934 259.20231849 -0.22780869 266.68127716 -0.21957543 C270.49264832 -0.21568464 274.30385512 -0.21652107 278.11520576 -0.23063278 C282.25921252 -0.24583493 286.40285342 -0.23745881 290.546875 -0.22705078 C291.73475099 -0.23510719 292.92262698 -0.24316359 294.14649922 -0.25146413 C319.26187262 -0.10471182 341.76712353 10.62057832 360.21788025 27.14044189 C361.16534119 27.98155518 361.16534119 27.98155518 362.13194275 28.83966064 C373.46301275 39.52398008 381.59647059 53.23760737 387.03038025 67.70294189 C387.32058044 68.47001465 387.61078064 69.2370874 387.90977478 70.02740479 C391.63024632 80.38655844 392.51330146 90.45283947 392.47857666 101.40357971 C392.48240221 102.69758656 392.48622775 103.99159341 392.49016923 105.32481259 C392.50038686 108.88726109 392.49828346 112.44960825 392.49398863 116.01206481 C392.49150998 119.86562851 392.50054967 123.71916852 392.50802612 127.57272339 C392.5207438 135.11113015 392.52257047 142.64950123 392.52022586 150.18791691 C392.51843919 156.31883144 392.52019981 162.44973518 392.5244503 168.58064842 C392.52504549 169.45490543 392.52564068 170.32916243 392.52625391 171.22991207 C392.52746572 173.00626396 392.52867986 174.78261585 392.52989628 176.55896773 C392.54076061 193.19967452 392.53861463 209.84036101 392.53251144 226.48106893 C392.52734375 241.68344078 392.53859578 256.88574852 392.55760965 272.08810768 C392.57701132 287.72112114 392.58523994 303.3541043 392.5814864 318.98712987 C392.57957783 327.75455186 392.58202829 336.5219193 392.59620094 345.28933144 C392.60814546 352.7535471 392.60948535 360.21767465 392.59741078 367.6818916 C392.59154346 371.48518517 392.59036268 375.2883178 392.60241318 379.09160042 C392.61536184 383.22664402 392.60475664 387.36130861 392.59210205 391.49635315 C392.59947634 392.68150066 392.60685062 393.86664817 392.61444837 395.08770925 C392.44166454 422.06851993 380.12612804 446.40805999 361.21788025 465.14044189 C336.5517192 487.9559425 308.38212733 493.77868387 275.70849979 493.66334057 C271.86721798 493.65419419 268.02600561 493.66830677 264.18473816 493.67926025 C256.68186401 493.6969495 249.17915086 493.69324848 241.67627067 493.68160969 C235.57222191 493.6725369 229.46821794 493.6713679 223.36416435 493.67570496 C222.49187518 493.67631789 221.61958601 493.67693082 220.72086383 493.67756233 C218.94822406 493.67884137 217.1755843 493.68013822 215.40294456 493.68145269 C198.82119673 493.69283056 182.23953768 493.67978915 165.65780442 493.65825123 C151.46481326 493.64038595 137.27195303 493.64348509 123.07896423 493.66192627 C106.55379569 493.68338797 90.02870478 493.69172888 73.50352424 493.67947721 C71.73748681 493.67820317 69.97144937 493.67694568 68.20541191 493.67570496 C67.33673657 493.67508785 66.46806122 493.67447075 65.57306238 493.67383495 C59.48486224 493.67039767 53.3967118 493.67617524 47.30851936 493.68562317 C39.87673594 493.6969038 32.44512125 493.69367698 25.01335687 493.67250019 C21.22974164 493.6620701 17.44640654 493.65772823 13.66279411 493.6710968 C-18.47252177 493.77506659 -46.41763235 488.11302718 -70.114151 464.83966064 C-70.99458069 463.94891846 -71.87501038 463.05817627 -72.78211975 462.14044189 C-73.56973694 461.36313721 -74.35735413 460.58583252 -75.1688385 459.78497314 C-98.10215221 435.89110179 -102.41880302 406.6185965 -102.30501842 374.85316777 C-102.29586126 371.06166523 -102.30998976 367.27023254 -102.32093811 363.47874451 C-102.33861565 356.07560271 -102.33493181 348.67262419 -102.32328755 341.26947629 C-102.31421073 335.24649629 -102.31304747 329.22356168 -102.31738281 323.20057678 C-102.31799574 322.33952454 -102.31860868 321.47847231 -102.31924018 320.59132758 C-102.32051923 318.84147734 -102.32181609 317.09162712 -102.32313055 315.34177691 C-102.3345048 298.97844118 -102.32147237 282.61519546 -102.29992908 266.25187451 C-102.28206098 252.2470746 -102.28516598 238.24240738 -102.30360413 224.23760986 C-102.32506681 207.92814565 -102.33340646 191.6187601 -102.32115507 175.30928373 C-102.31988103 173.5662915 -102.31862355 171.82329926 -102.31738281 170.08030701 C-102.31676571 169.22298309 -102.31614861 168.36565917 -102.31551281 167.48235574 C-102.31207606 161.47479512 -102.31785187 155.46728487 -102.32730103 149.45973206 C-102.33858264 142.1267861 -102.33535271 134.79401115 -102.31417805 127.46108449 C-102.30374972 123.7280927 -102.29940299 119.99538479 -102.31277466 116.26239586 C-102.41726106 84.40194977 -97.01241783 55.5536557 -73.78211975 32.14044189 C-72.95711975 31.27419189 -72.13211975 30.40794189 -71.28211975 29.51544189 C-70.45711975 28.73169189 -69.63211975 27.94794189 -68.78211975 27.14044189 C-68.17368225 26.54876221 -67.56524475 25.95708252 -66.93836975 25.34747314 C-48.50922382 8.0868419 -24.88237618 -0.01791466 0 0 Z " fill="#297CDB" transform="translate(104.78211975097656,2.85955810546875)"/>
<path d="M0 0 C1.65296585 0.01227379 1.65296585 0.01227379 3.33932495 0.02479553 C19.38669625 0.28286709 35.3847951 1.75298333 51.36999512 3.09417725 C54.84044963 3.38312133 58.31162615 3.66276836 61.78286934 3.94205379 C65.9648665 4.27867995 70.14654531 4.61916823 74.328125 4.9609375 C75.10895573 5.02471022 75.88978645 5.08848293 76.69427872 5.15418816 C78.91240907 5.33634791 81.13030797 5.52108812 83.34814453 5.70678711 C84.60209015 5.81115585 85.85603577 5.9155246 87.14797974 6.02305603 C99.48449952 7.1922241 99.48449952 7.1922241 103.1953125 10.18359375 C103.84242188 10.68503906 104.48953125 11.18648438 105.15625 11.703125 C108.41659133 14.97111972 109.18140234 18.0731224 109.3828125 22.62109375 C109.28059371 28.08249759 107.70488669 30.78715039 104.03515625 34.71484375 C97.02677982 39.95567551 88.97412301 40.50629083 80.5078125 41.49609375 C79.79920074 41.58236023 79.09058899 41.66862671 78.36050415 41.75750732 C61.40042651 43.77346765 44.37892558 43.93309801 27.31713867 44.04345703 C25.73286072 44.05777771 25.73286072 44.05777771 24.11657715 44.0723877 C22.12493241 44.088803 20.13319041 44.09653973 18.14147949 44.09411621 C11.71677436 44.06297624 11.71677436 44.06297624 5.8203125 46.37109375 C4.63207453 49.93580766 4.55756398 52.62692735 4.8203125 56.37109375 C6.21988447 58.65593681 6.21988447 58.65593681 7.8203125 60.37109375 C7.8203125 61.03109375 7.8203125 61.69109375 7.8203125 62.37109375 C46.93994819 63.06168714 46.93994819 63.06168714 85.8203125 59.37109375 C86.65578613 59.24831055 87.49125977 59.12552734 88.35205078 58.99902344 C100.32835922 57.21401011 112.24379265 54.2970813 120.32421875 44.55859375 C125.10006661 37.48748767 126.66318921 29.69811836 127.8203125 21.37109375 C131.7659445 20.26366944 135.71292552 19.16119674 139.66113281 18.06298828 C140.9997139 17.68994636 142.33794106 17.31563174 143.67578125 16.93994141 C163.51572917 11.37109375 163.51572917 11.37109375 170.8203125 11.37109375 C170.8203125 10.71109375 170.8203125 10.05109375 170.8203125 9.37109375 C179.78243608 6.5673009 191.63108997 3.16596065 200.4453125 7.73046875 C204.8740097 11.4101951 208.34148316 15.64306529 209.09375 21.5 C209.32562365 26.77066644 208.42646214 30.69799785 205.8203125 35.37109375 C202.40504904 39.08594173 198.76424766 41.98846754 194.6328125 44.87109375 C193.38887898 45.74546252 192.14541293 46.6204966 190.90234375 47.49609375 C190.24314941 47.95886719 189.58395508 48.42164063 188.90478516 48.8984375 C185.18742631 51.52470929 181.50622195 54.20096147 177.8203125 56.87109375 C175.52756478 58.52787578 173.2342676 60.18389504 170.94091797 61.83984375 C169.61418603 62.79785235 168.28765562 63.75614018 166.96142578 64.71484375 C159.58084428 70.0446854 152.12930096 75.26798182 144.6328125 80.43359375 C143.80595947 81.00658203 142.97910645 81.57957031 142.12719727 82.16992188 C140.96401978 82.9675293 140.96401978 82.9675293 139.77734375 83.78125 C139.08616455 84.25699463 138.39498535 84.73273926 137.68286133 85.22290039 C135.8203125 86.37109375 135.8203125 86.37109375 132.8203125 87.37109375 C132.8203125 88.03109375 132.8203125 88.69109375 132.8203125 89.37109375 C130.87109375 90.74609375 130.87109375 90.74609375 128.1328125 92.37109375 C123.84789256 95.01926127 119.84233428 97.82034281 115.8828125 100.93359375 C107.84504005 107.24430289 99.46387806 113.06067462 91.04199219 118.84423828 C89.70605178 119.76236699 88.3725518 120.68408316 87.04394531 121.61279297 C77.19854276 128.48570178 68.3409026 131.67868061 56.33203125 131.640625 C55.41754715 131.63830872 54.50306305 131.63599243 53.56086731 131.63360596 C42.93469332 131.49433807 32.51569614 130.10474216 22.0078125 128.62109375 C19.97778851 128.34327863 17.94767691 128.0661029 15.91748047 127.78955078 C11.06475109 127.12318269 6.21515855 126.43699026 1.36700439 125.73815918 C-0.91913461 125.40864833 -3.20580752 125.08318965 -5.49267578 124.75878906 C-8.85029311 124.27516531 -12.2031258 123.76983506 -15.5546875 123.24609375 C-16.45421143 123.11235352 -17.35373535 122.97861328 -18.28051758 122.84082031 C-26.83456418 121.41220461 -33.07915966 117.9155473 -39.4921875 112.18359375 C-40.62437237 111.19979807 -41.75719448 110.21673531 -42.890625 109.234375 C-43.44588867 108.7492041 -44.00115234 108.2640332 -44.57324219 107.76416016 C-50.88668076 102.28931509 -57.46724292 97.13430053 -64.0546875 91.99609375 C-69.30114191 87.90133504 -74.42407324 83.68664325 -79.48461914 79.36474609 C-82.95120083 76.40431614 -86.45413691 73.49636903 -89.9921875 70.62109375 C-93.3045283 67.91585354 -96.60996252 65.2050922 -99.8671875 62.43359375 C-100.51042969 61.88832031 -101.15367188 61.34304688 -101.81640625 60.78125 C-103.1796875 59.37109375 -103.1796875 59.37109375 -103.1796875 57.37109375 C-101.49682617 56.05273438 -101.49682617 56.05273438 -99.09765625 54.52734375 C-97.74933716 53.6607312 -97.74933716 53.6607312 -96.3737793 52.77661133 C-94.88551636 51.83338013 -94.88551636 51.83338013 -93.3671875 50.87109375 C-91.25172505 49.51178385 -89.13717931 48.15104647 -87.0234375 46.7890625 C-86.46907516 46.43277267 -85.91471283 46.07648285 -85.34355164 45.70939636 C-78.96956651 41.60695437 -72.66803769 37.39713122 -66.3671875 33.18359375 C-65.2148956 32.41406623 -64.06255209 31.644616 -62.91015625 30.87524414 C-58.75887457 28.10305385 -54.60955471 25.32793377 -50.4609375 22.55175781 C-46.02351348 19.58249713 -41.58121599 16.62098112 -37.13037109 13.671875 C-35.18639472 12.37556635 -33.25500995 11.0619361 -31.32421875 9.74609375 C-30.10971086 8.9330918 -28.89488511 8.12056442 -27.6796875 7.30859375 C-26.14828125 6.27025391 -26.14828125 6.27025391 -24.5859375 5.2109375 C-16.64394625 0.92116929 -8.9260545 -0.12444589 0 0 Z " fill="#FCFDFE" transform="translate(219.1796875,265.62890625)"/>
<path d="M0 0 C1.23130406 0.55312359 2.46307861 1.10520097 3.6953125 1.65625 C4.86835938 2.1821875 6.04140625 2.708125 7.25 3.25 C9.87940797 4.32098601 12.51821342 5.36118201 15.1640625 6.390625 C17.24946572 7.24977988 19.24614572 8.21633761 21.25 9.25 C21.25 9.91 21.25 10.57 21.25 11.25 C17.74015092 13.85408158 14.01230209 15.0640005 9.90625 16.37109375 C2.07921283 18.96092223 -5.58146085 22.04844081 -13.04296875 25.55078125 C-14.75 26.25 -14.75 26.25 -16.75 26.25 C-17.245 27.735 -17.245 27.735 -17.75 29.25 C-19.3125 30.9375 -19.3125 30.9375 -20.75 32.25 C-19.43 32.91 -18.11 33.57 -16.75 34.25 C-16.75 34.91 -16.75 35.57 -16.75 36.25 C-17.74 36.745 -17.74 36.745 -18.75 37.25 C-15.72062217 37.25 -14.37515611 36.81729624 -11.65234375 35.640625 C-10.85626709 35.3003125 -10.06019043 34.96 -9.23999023 34.609375 C-8.39766846 34.24328125 -7.55534668 33.8771875 -6.6875 33.5 C-4.94821105 32.75452112 -3.20863104 32.00972095 -1.46875 31.265625 C-0.64117187 30.91048828 0.18640625 30.55535156 1.0390625 30.18945312 C3.44750874 29.16607623 5.8723464 28.19512992 8.3125 27.25 C16.73044097 23.93384144 25.1558489 20.29707555 33.25 16.25 C38.38358894 15.94802418 42.36566057 16.73417052 47.25 18.25 C48.66544092 18.52716809 50.08220995 18.7976104 51.5 19.0625 C57.11550914 20.25543199 62.11897304 22.73723539 67.25 25.25 C67.25 26.24 67.25 27.23 67.25 28.25 C66.59 28.25 65.93 28.25 65.25 28.25 C65.25 29.24 65.25 30.23 65.25 31.25 C64.59 31.25 63.93 31.25 63.25 31.25 C63.58 32.9 63.91 34.55 64.25 36.25 C66.56 36.25 68.87 36.25 71.25 36.25 C71.34261407 48.82808314 71.4137215 61.40608539 71.45724869 73.98443985 C71.47813787 79.82487263 71.50648023 85.66507242 71.55175781 91.50537109 C71.59516745 97.13988287 71.61912708 102.7741703 71.62950897 108.40883636 C71.63690907 110.56028527 71.65135947 112.71172167 71.67292023 114.86307526 C71.70188886 117.87285553 71.70595868 120.88170468 71.70410156 123.89160156 C71.71848267 124.7842421 71.73286377 125.67688263 71.74768066 126.59657288 C71.70734511 132.62396764 71.70734511 132.62396764 69.41815186 135.75750732 C66.54832075 137.73301559 63.77986115 138.58364024 60.4375 139.5625 C54.8567405 141.27616833 49.62849718 143.32936717 44.375 145.875 C40.55837291 147.72238152 36.8177443 149.51596521 32.75 150.75 C28.66723418 151.99091569 24.89936228 153.78055059 21.0625 155.625 C12.75403585 159.60624861 4.22544501 163.07216127 -4.75 165.25 C-4.77316448 152.68912808 -4.79093608 140.12826124 -4.80181217 127.56737232 C-4.80703199 121.73493 -4.81411335 115.90250228 -4.82543945 110.07006836 C-4.83630026 104.44205774 -4.84228364 98.81406117 -4.84487724 93.18604088 C-4.84672572 91.03824327 -4.85033528 88.89044643 -4.85573006 86.7426548 C-4.8629828 83.73572753 -4.86398914 80.72885843 -4.86352539 77.72192383 C-4.86712067 76.83287857 -4.87071594 75.94383331 -4.87442017 75.02784729 C-4.8675778 70.93114867 -4.6006785 67.27027256 -3.75 63.25 C-4.59077872 60.98142854 -4.59077872 60.98142854 -5.75 59.25 C-6.1625 59.745 -6.575 60.24 -7 60.75 C-8.75 62.25 -8.75 62.25 -12.75 62.25 C-12.75 61.26 -12.75 60.27 -12.75 59.25 C-14.4 59.25 -16.05 59.25 -17.75 59.25 C-16.43 59.91 -15.11 60.57 -13.75 61.25 C-14.41 61.91 -15.07 62.57 -15.75 63.25 C-17.235 62.755 -17.235 62.755 -18.75 62.25 C-18.75 63.9 -18.75 65.55 -18.75 67.25 C-16.77 67.745 -16.77 67.745 -14.75 68.25 C-14.75 100.26 -14.75 132.27 -14.75 165.25 C-19.42361591 164.47106402 -22.79692751 163.61720189 -27.109375 161.921875 C-28.30820313 161.45136719 -29.50703125 160.98085937 -30.7421875 160.49609375 C-31.36061523 160.24972168 -31.97904297 160.00334961 -32.61621094 159.74951172 C-34.47801407 159.00874764 -36.34446085 158.2796895 -38.2109375 157.55078125 C-44.53906606 155.0506962 -50.69506668 152.42034683 -56.71557617 149.24536133 C-59.61351249 147.82751825 -62.64380365 147.09714446 -65.75 146.25 C-67.90620488 145.34482092 -70.02249631 144.36920997 -72.14453125 143.38671875 C-76.29275298 141.57692486 -80.5663771 140.10227286 -84.83203125 138.59375 C-88.11454683 137.08212301 -89.59693447 136.16021564 -91.75 133.25 C-92.33190155 130.16217341 -92.25512027 127.11697633 -92.20410156 123.98339844 C-92.20497772 122.57800812 -92.20497772 122.57800812 -92.20587158 121.14422607 C-92.20308596 118.04889819 -92.17197092 114.95453455 -92.140625 111.859375 C-92.13316432 109.71275356 -92.12747057 107.56612531 -92.12347412 105.41949463 C-92.10820425 99.77060124 -92.06891038 94.12211947 -92.0246582 88.47338867 C-91.98373492 82.70887826 -91.96546937 76.94430131 -91.9453125 71.1796875 C-91.90241776 59.86961085 -91.83414974 48.55983966 -91.75 37.25 C-90.79867187 37.13785156 -89.84734375 37.02570313 -88.8671875 36.91015625 C-85.54587186 36.56893411 -85.54587186 36.56893411 -83.875 33.6875 C-83.50375 32.883125 -83.1325 32.07875 -82.75 31.25 C-83.41 31.25 -84.07 31.25 -84.75 31.25 C-84.75 30.59 -84.75 29.93 -84.75 29.25 C-85.41 29.25 -86.07 29.25 -86.75 29.25 C-86.42 28.26 -86.09 27.27 -85.75 26.25 C-83.59765625 25.22265625 -83.59765625 25.22265625 -80.8125 24.3125 C-79.31203125 23.80203125 -79.31203125 23.80203125 -77.78125 23.28125 C-76.28078125 22.77078125 -76.28078125 22.77078125 -74.75 22.25 C-66.28960539 19.0120712 -57.9129943 15.50680075 -49.61328125 11.87890625 C-39.82751586 7.60559568 -29.88663902 3.79736684 -19.88232422 0.06835938 C-18.23522813 -0.56377551 -16.61304843 -1.26106216 -15.00390625 -1.984375 C-9.36344959 -3.90037068 -5.24210043 -2.39571106 0 0 Z " fill="#FBFDFE" transform="translate(276.75,69.75)"/>
<path d="M0 0 C1.42939449 0.47064325 2.85828814 0.94280774 4.28697205 1.41560364 C5.48062582 1.80976078 5.48062582 1.80976078 6.69839382 2.21188068 C9.71382604 3.24442934 12.635762 4.44743603 15.56640625 5.69921875 C17.2824707 6.42915039 17.2824707 6.42915039 19.03320312 7.17382812 C20.19787109 7.67333984 21.36253906 8.17285156 22.5625 8.6875 C24.36170898 9.45416992 24.36170898 9.45416992 26.19726562 10.23632812 C29.13286285 11.48775802 32.06704935 12.74238293 35 14 C35.02505615 14.93384521 35.0501123 15.86769043 35.07592773 16.82983398 C35.17086928 20.28325189 35.27011258 23.7364896 35.37231445 27.18969727 C35.41571813 28.68639269 35.45738913 30.18313939 35.49731445 31.67993164 C35.55488616 33.82714312 35.61861716 35.97409521 35.68359375 38.12109375 C35.73858032 40.06133423 35.73858032 40.06133423 35.79467773 42.04077148 C35.6667278 44.88555008 35.6667278 44.88555008 37 46 C40 46.16666667 40 46.16666667 43 46 C44.77490546 44.22509454 44.23499973 41.62215098 44.31640625 39.21484375 C44.37924805 37.46010742 44.37924805 37.46010742 44.44335938 35.66992188 C44.48267578 34.43822266 44.52199219 33.20652344 44.5625 31.9375 C44.60568359 30.70193359 44.64886719 29.46636719 44.69335938 28.19335938 C44.79984198 25.12902665 44.90185424 22.06460927 45 19 C49.54666926 20.24675962 53.9162085 21.6559022 58.3125 23.375 C59.42882812 23.81070313 60.54515625 24.24640625 61.6953125 24.6953125 C62.78585938 25.12585938 63.87640625 25.55640625 65 26 C65.98742187 26.38929688 66.97484375 26.77859375 67.9921875 27.1796875 C74.63556338 29.81778169 74.63556338 29.81778169 77 31 C77 63.01 77 95.02 77 128 C72.32638409 127.22106402 68.95307249 126.36720189 64.640625 124.671875 C62.84238281 123.96611328 62.84238281 123.96611328 61.0078125 123.24609375 C60.38938477 122.99972168 59.77095703 122.75334961 59.13378906 122.49951172 C57.27198593 121.75874764 55.40553915 121.0296895 53.5390625 120.30078125 C47.21093394 117.8006962 41.05493332 115.17034683 35.03442383 111.99536133 C32.13648751 110.57751825 29.10619635 109.84714446 26 109 C23.84379512 108.09482092 21.72750369 107.11920997 19.60546875 106.13671875 C15.45724702 104.32692486 11.1836229 102.85227286 6.91796875 101.34375 C3.63545317 99.83212301 2.15306553 98.91021564 0 96 C-0.58190155 92.91217341 -0.50512027 89.86697633 -0.45410156 86.73339844 C-0.45497772 85.32800812 -0.45497772 85.32800812 -0.45587158 83.89422607 C-0.45308596 80.79889819 -0.42197092 77.70453455 -0.390625 74.609375 C-0.38316432 72.46275356 -0.37747057 70.31612531 -0.37347412 68.16949463 C-0.35820425 62.52060124 -0.31891038 56.87211947 -0.2746582 51.22338867 C-0.23373492 45.45887826 -0.21546937 39.69430131 -0.1953125 33.9296875 C-0.15241776 22.61961085 -0.08414974 11.30983966 0 0 Z " fill="#FCFDFE" transform="translate(185,107)"/>
<path d="M0 0 C1.23130406 0.55312359 2.46307861 1.10520097 3.6953125 1.65625 C4.86835938 2.1821875 6.04140625 2.708125 7.25 3.25 C9.87940797 4.32098601 12.51821342 5.36118201 15.1640625 6.390625 C17.24946572 7.24977988 19.24614572 8.21633761 21.25 9.25 C21.25 9.91 21.25 10.57 21.25 11.25 C17.74015092 13.85408158 14.01230209 15.0640005 9.90625 16.37109375 C2.07921283 18.96092223 -5.58146085 22.04844081 -13.04296875 25.55078125 C-14.75 26.25 -14.75 26.25 -16.75 26.25 C-17.245 27.735 -17.245 27.735 -17.75 29.25 C-19.3125 30.9375 -19.3125 30.9375 -20.75 32.25 C-19.43 32.91 -18.11 33.57 -16.75 34.25 C-16.75 34.91 -16.75 35.57 -16.75 36.25 C-17.74 36.745 -17.74 36.745 -18.75 37.25 C-15.72062217 37.25 -14.37515611 36.81729624 -11.65234375 35.640625 C-10.85626709 35.3003125 -10.06019043 34.96 -9.23999023 34.609375 C-8.39766846 34.24328125 -7.55534668 33.8771875 -6.6875 33.5 C-4.94821105 32.75452112 -3.20863104 32.00972095 -1.46875 31.265625 C-0.64117187 30.91048828 0.18640625 30.55535156 1.0390625 30.18945312 C3.44750874 29.16607623 5.8723464 28.19512992 8.3125 27.25 C16.73044097 23.93384144 25.1558489 20.29707555 33.25 16.25 C38.38358894 15.94802418 42.36566057 16.73417052 47.25 18.25 C48.66544092 18.52716809 50.08220995 18.7976104 51.5 19.0625 C57.11550914 20.25543199 62.11897304 22.73723539 67.25 25.25 C67.25 26.24 67.25 27.23 67.25 28.25 C66.59 28.25 65.93 28.25 65.25 28.25 C65.25 29.24 65.25 30.23 65.25 31.25 C64.59 31.25 63.93 31.25 63.25 31.25 C63.58 32.9 63.91 34.55 64.25 36.25 C66.56 36.25 68.87 36.25 71.25 36.25 C68.09609406 38.87952158 65.03676921 40.23121844 61.1875 41.625 C57.05965515 43.12510678 53.07845727 44.76393423 49.08984375 46.60546875 C43.10248353 49.35731528 37.0081996 51.78247151 30.875 54.1875 C24.07382356 56.87122905 17.33969782 59.57977894 10.75 62.75 C5.94289703 65.05272591 1.5021336 66.35980786 -3.75 67.25 C-4.245 63.29 -4.245 63.29 -4.75 59.25 C-5.3275 59.745 -5.905 60.24 -6.5 60.75 C-8.75 62.25 -8.75 62.25 -12.75 62.25 C-12.75 61.26 -12.75 60.27 -12.75 59.25 C-14.4 59.25 -16.05 59.25 -17.75 59.25 C-16.43 59.91 -15.11 60.57 -13.75 61.25 C-14.41 61.91 -15.07 62.57 -15.75 63.25 C-17.235 62.755 -17.235 62.755 -18.75 62.25 C-18.75 63.57 -18.75 64.89 -18.75 66.25 C-25.58826389 64.62310163 -31.81743932 62.50620572 -38.14453125 59.43359375 C-40.96024747 58.15449028 -43.81188043 57.20897836 -46.75 56.25 C-46.73428955 57.41571533 -46.73428955 57.41571533 -46.71826172 58.60498047 C-46.67679718 62.111621 -46.65070422 65.61821006 -46.625 69.125 C-46.60824219 70.34832031 -46.59148437 71.57164062 -46.57421875 72.83203125 C-46.56455078 74.58193359 -46.56455078 74.58193359 -46.5546875 76.3671875 C-46.53897705 77.98536377 -46.53897705 77.98536377 -46.52294922 79.63623047 C-46.75 82.25 -46.75 82.25 -48.75 84.25 C-51.75 84.5 -51.75 84.5 -54.75 84.25 C-56.75 82.25 -56.75 82.25 -56.97705078 79.17724609 C-56.96657715 77.88898926 -56.95610352 76.60073242 -56.9453125 75.2734375 C-56.9424826 74.58819 -56.93965271 73.9029425 -56.93673706 73.19692993 C-56.92553281 71.00610973 -56.90042859 68.81569684 -56.875 66.625 C-56.86497048 65.1406309 -56.85584458 63.6562554 -56.84765625 62.171875 C-56.82559294 58.53111739 -56.79106176 54.89059844 -56.75 51.25 C-57.97589844 50.86199219 -59.20179688 50.47398438 -60.46484375 50.07421875 C-66.54343589 48.04802137 -72.41337754 45.55513704 -78.3125 43.0625 C-79.96862305 42.36737305 -79.96862305 42.36737305 -81.65820312 41.65820312 C-84.35671574 40.52506147 -87.05392958 39.3889372 -89.75 38.25 C-89.42 37.59 -89.09 36.93 -88.75 36.25 C-87.76 36.25 -86.77 36.25 -85.75 36.25 C-84.03288757 33.80503957 -84.03288757 33.80503957 -82.75 31.25 C-83.41 31.25 -84.07 31.25 -84.75 31.25 C-84.75 30.59 -84.75 29.93 -84.75 29.25 C-85.41 29.25 -86.07 29.25 -86.75 29.25 C-86.42 28.26 -86.09 27.27 -85.75 26.25 C-83.59765625 25.22265625 -83.59765625 25.22265625 -80.8125 24.3125 C-79.31203125 23.80203125 -79.31203125 23.80203125 -77.78125 23.28125 C-76.28078125 22.77078125 -76.28078125 22.77078125 -74.75 22.25 C-66.28960539 19.0120712 -57.9129943 15.50680075 -49.61328125 11.87890625 C-39.82751586 7.60559568 -29.88663902 3.79736684 -19.88232422 0.06835938 C-18.23522813 -0.56377551 -16.61304843 -1.26106216 -15.00390625 -1.984375 C-9.36344959 -3.90037068 -5.24210043 -2.39571106 0 0 Z " fill="#337FD8" transform="translate(276.75,69.75)"/>
<path d="M0 0 C3 0 3 0 5.17578125 2.07421875 C5.82281006 2.76136963 5.82281006 2.76136963 6.48291016 3.46240234 C9.48433499 6.50440003 12.87778949 9.11623981 16.1875 11.8125 C16.94998047 12.43705078 17.71246094 13.06160156 18.49804688 13.70507812 C23.07028843 17.44458802 27.67063699 21.14682704 32.29296875 24.82421875 C41.32463637 32.08343789 50.24621014 39.48099417 59.0625 47 C63.5818618 50.85368705 68.19181149 54.51170637 73 58 C71.31811079 62.08032292 68.44856889 65.11280296 65.5625 68.375 C60.74278584 73.89015414 56.14496173 79.52607271 51.74243164 85.38037109 C45.44541252 93.6060869 45.44541252 93.6060869 39.96875 94.48828125 C36.30222355 93.88523414 35.10350693 92.80475784 32.5 90.1875 C28.57044974 86.42266142 24.5582254 82.99669931 20.25 79.6875 C14.64803986 75.35665658 9.24911198 70.83747603 3.89941406 66.19995117 C0.82705139 63.54390837 -2.26748882 60.96172755 -5.5 58.5 C-9.56498801 55.39373558 -13.47755686 52.12472951 -17.375 48.8125 C-17.98279297 48.30074219 -18.59058594 47.78898437 -19.21679688 47.26171875 C-26.59392434 40.95026816 -26.59392434 40.95026816 -27.57421875 36.2421875 C-26.72016443 31.41997605 -23.99928579 28.72902862 -20.8125 25.125 C-19.53015822 23.62984194 -18.24893647 22.13372265 -16.96875 20.63671875 C-16.31132813 19.87536621 -15.65390625 19.11401367 -14.9765625 18.32958984 C-13.02802858 16.03303468 -11.1458108 13.69709515 -9.28125 11.33203125 C-8.69754639 10.59388184 -8.11384277 9.85573242 -7.51245117 9.09521484 C-6.39496521 7.67681172 -5.28296765 6.25406415 -4.17700195 4.82666016 C-2.85152361 3.1622631 -1.43303656 1.57274175 0 0 Z " fill="#FAFCFD" transform="translate(100,338)"/>
<path d="M0 0 C1.23130406 0.55312359 2.46307861 1.10520097 3.6953125 1.65625 C4.86835938 2.1821875 6.04140625 2.708125 7.25 3.25 C9.87940797 4.32098601 12.51821342 5.36118201 15.1640625 6.390625 C17.24946572 7.24977988 19.24614572 8.21633761 21.25 9.25 C21.25 9.91 21.25 10.57 21.25 11.25 C17.73528396 13.85769254 14.00072477 15.06557967 9.890625 16.37890625 C1.14052589 19.26540344 -7.25158649 22.87656443 -15.5859375 26.78515625 C-24.50835175 30.91590359 -33.68786911 34.42835746 -42.87182617 37.92749023 C-46.58701089 39.12310994 -46.58701089 39.12310994 -49.75 41.25 C-54.48022952 41.62389523 -57.76217497 40.71470084 -62.1015625 38.87890625 C-63.28234375 38.38712891 -64.463125 37.89535156 -65.6796875 37.38867188 C-66.91167338 36.8637857 -68.1434423 36.33839004 -69.375 35.8125 C-71.80292295 34.78869619 -74.23336532 33.77112908 -76.6640625 32.75390625 C-77.7360791 32.29830322 -78.8080957 31.8427002 -79.91259766 31.37329102 C-82.20299119 30.46655374 -84.34747746 29.75954917 -86.75 29.25 C-86.255 27.765 -86.255 27.765 -85.75 26.25 C-83.59765625 25.22265625 -83.59765625 25.22265625 -80.8125 24.3125 C-79.31203125 23.80203125 -79.31203125 23.80203125 -77.78125 23.28125 C-76.28078125 22.77078125 -76.28078125 22.77078125 -74.75 22.25 C-66.28960539 19.0120712 -57.9129943 15.50680075 -49.61328125 11.87890625 C-39.82751586 7.60559568 -29.88663902 3.79736684 -19.88232422 0.06835938 C-18.23522813 -0.56377551 -16.61304843 -1.26106216 -15.00390625 -1.984375 C-9.36344959 -3.90037068 -5.24210043 -2.39571106 0 0 Z " fill="#F6FBFD" transform="translate(276.75,69.75)"/>
<path d="M0 0 C2.5 1.3125 2.5 1.3125 5 3 C9.58023654 5.11395532 14.14511612 6.73492921 18.984375 8.15625 C21.21573076 9.0903059 22.41631055 10.19579683 24 12 C19.72915977 14.74554015 15.55238816 16.59109543 10.75 18.25 C-0.48433242 22.13788999 -11.35797362 26.92813225 -22.21728516 31.75244141 C-28.27015222 34.43310397 -34.34995862 37.04977857 -40.5 39.5 C-41.13446045 39.7676416 -41.7689209 40.0352832 -42.42260742 40.31103516 C-50.06511759 43.2724702 -56.42800835 41.18157427 -63.5625 38.125 C-64.18318359 37.86847656 -64.80386719 37.61195312 -65.44335938 37.34765625 C-67.30077695 36.5767989 -69.15120614 35.7912974 -71 35 C-71.66757324 34.71479492 -72.33514648 34.42958984 -73.02294922 34.13574219 C-74.68266139 33.42545048 -76.34142842 32.71295098 -78 32 C-78 31.34 -78 30.68 -78 30 C-77.21882812 29.69449219 -76.43765625 29.38898438 -75.6328125 29.07421875 C-65.81044997 25.19121352 -56.08245732 21.09964851 -46.36572266 16.9597168 C-41.52813127 14.90156416 -36.68919367 12.86056043 -31.80078125 10.92578125 C-26.97642669 9.01218057 -22.23476249 6.93676634 -17.5 4.8125 C-16.70335937 4.45736328 -15.90671875 4.10222656 -15.0859375 3.73632812 C-5.83430292 -0.39554596 -5.83430292 -0.39554596 0 0 Z " fill="#F6FBFD" transform="translate(317,86)"/>
<path d="M0 0 C3.31973919 3.66918542 4.32913776 7.7194949 5.625 12.375 C5.8415625 13.1175 6.058125 13.86 6.28125 14.625 C7.99960321 20.62862913 9.12322134 26.37505085 9.13142776 32.64988708 C9.13526891 33.75743599 9.13911005 34.86498489 9.1430676 36.00609589 C9.14220112 37.21249977 9.14133463 38.41890366 9.14044189 39.66186523 C9.14341302 40.95159996 9.14638414 42.24133469 9.1494453 43.57015228 C9.15749379 47.1438705 9.15930367 50.71756861 9.16004276 54.29129481 C9.16189712 58.14834933 9.16944647 62.0053935 9.17617798 65.86244202 C9.18974749 74.29457456 9.19578413 82.72670235 9.20018864 91.15884399 C9.20295393 96.42783712 9.20719186 101.69682842 9.21169281 106.96582031 C9.22388468 121.56468592 9.2341835 136.16355007 9.2375679 150.76242065 C9.23789725 152.16342091 9.23789725 152.16342091 9.23823325 153.5927242 C9.23856067 154.99701443 9.23856067 154.99701443 9.2388947 156.42967415 C9.23933816 158.32665126 9.23978472 160.22362836 9.24023438 162.12060547 C9.2404558 163.061565 9.24067723 164.00252452 9.24090537 164.97199798 C9.24485044 180.20701687 9.26229595 195.44198785 9.2855939 210.67698824 C9.30934076 226.3324395 9.3217713 241.98786675 9.32293582 257.6433363 C9.32385081 266.42760516 9.32955859 275.21181162 9.34775543 283.99606323 C9.36320162 291.47869298 9.36825041 298.96124104 9.36001733 306.44388372 C9.35612649 310.25727316 9.35696312 314.07049833 9.37107468 317.88386726 C9.38627679 322.030117 9.3779007 326.17600107 9.36749268 330.32226562 C9.37554908 331.51082374 9.38360548 332.69938185 9.39190602 333.92395687 C9.23352746 361.04388443 -3.15268645 385.09173136 -22 404 C-24.59835428 406.26383562 -27.10335804 408.12570226 -30 410 C-29.690625 409.401875 -29.38125 408.80375 -29.0625 408.1875 C-27.89790296 405.91043228 -27.89790296 405.91043228 -27 403 C-25.0625 401.875 -25.0625 401.875 -23 401 C-22.34 400.67 -21.68 400.34 -21 400 C-20.67 399.01 -20.34 398.02 -20 397 C-18.34997172 395.64613064 -16.6825613 394.31321858 -15 393 C-12.87491756 389.81237635 -12.4979837 387.73487777 -12 384 C-10.68 384 -9.36 384 -8 384 C-8 382.35 -8 380.7 -8 379 C-7.34 378.67 -6.68 378.34 -6 378 C-5.67 377.01 -5.34 376.02 -5 375 C-4.34 375 -3.68 375 -3 375 C-2.855625 374.21625 -2.71125 373.4325 -2.5625 372.625 C-2 370 -2 370 -1 368 C-0.34 368 0.32 368 1 368 C1 366.02 1 364.04 1 362 C1.66 362 2.32 362 3 362 C3 359.36 3 356.72 3 354 C3.66 354 4.32 354 5 354 C5.83770616 345.54743911 6.14667448 337.1903053 6.14044189 328.69926453 C6.14341302 327.41327592 6.14638414 326.12728732 6.1494453 324.80232936 C6.15743252 321.26690092 6.15930017 317.73149287 6.16004276 314.19605649 C6.1619078 310.36976344 6.169462 306.54348063 6.17617798 302.7171936 C6.18970045 294.36799121 6.19577582 286.01879365 6.20018864 277.66958213 C6.2029601 272.44912665 6.20719893 267.228673 6.21169281 262.00821877 C6.22387506 247.53178238 6.23417802 233.05534745 6.2375679 218.57890606 C6.23778747 217.6543034 6.23800703 216.72970073 6.23823325 215.77707981 C6.23845153 214.85038028 6.23866981 213.92368076 6.2388947 212.96889943 C6.23933815 211.09132683 6.23978472 209.21375424 6.24023438 207.33618164 C6.24056652 205.93919717 6.24056652 205.93919717 6.24090537 204.5139908 C6.24485372 189.42229233 6.26231356 174.33064214 6.2855939 159.23896232 C6.30934562 143.71552772 6.3217714 128.19211733 6.32293582 112.66866428 C6.32385017 103.96437717 6.3295422 95.26015308 6.34775543 86.55588341 C6.36320776 79.14552514 6.36824656 71.73524939 6.36001733 64.32487806 C6.35612959 60.54980243 6.35694793 56.77489273 6.37107468 52.99983788 C6.43172208 35.8004699 6.40690964 20.16981957 0 4 C0 2.68 0 1.36 0 0 Z " fill="#277EAF" transform="translate(488,64)"/>
<path d="M0 0 C1.93588373 -0.00445668 1.93588373 -0.00445668 3.91087621 -0.0090034 C7.48233509 -0.01704178 11.05377383 -0.0188612 14.62524068 -0.01960087 C18.48159595 -0.02145697 22.3379409 -0.02900712 26.19429016 -0.03573608 C34.62223139 -0.04929779 43.05016785 -0.05534085 51.47811818 -0.05974674 C56.74493908 -0.06251302 62.01175814 -0.06675109 67.2785778 -0.07125092 C81.87319479 -0.08344112 96.46781032 -0.09374069 111.06243229 -0.09712601 C112.46262987 -0.09745536 112.46262987 -0.09745536 113.89111426 -0.09779136 C115.29458233 -0.09811878 115.29458233 -0.09811878 116.7264033 -0.09845281 C118.62224392 -0.09889627 120.51808455 -0.09934283 122.41392517 -0.09979248 C123.82451621 -0.10012463 123.82451621 -0.10012463 125.26360404 -0.10046348 C140.49209283 -0.10440922 155.72053371 -0.12185751 170.949004 -0.145152 C186.59996686 -0.16889865 202.25090572 -0.18132938 217.90188688 -0.18249393 C226.6827874 -0.18340886 235.46362548 -0.18911532 244.24450874 -0.20731354 C251.72345448 -0.22275934 259.20231849 -0.22780869 266.68127716 -0.21957543 C270.49264832 -0.21568464 274.30385512 -0.21652107 278.11520576 -0.23063278 C282.25921252 -0.24583493 286.40285342 -0.23745881 290.546875 -0.22705078 C291.73475099 -0.23510719 292.92262698 -0.24316359 294.14649922 -0.25146413 C314.19347638 -0.1343271 332.86608874 6.80078065 349.21788025 18.14044189 C349.54788025 18.80044189 349.87788025 19.46044189 350.21788025 20.14044189 C344.24767405 18.34938003 338.97298774 15.61088664 333.495224 12.68731689 C319.36305915 5.3140135 306.65380555 2.98370301 290.9239502 3.02018738 C289.56497408 3.01975097 288.20599806 3.01887478 286.84702247 3.01759821 C283.12311089 3.01536692 279.39922818 3.01935584 275.67532027 3.02437627 C271.65563753 3.0287002 267.63595638 3.02723297 263.61627197 3.026474 C256.65534645 3.02595 249.69443032 3.0290839 242.73350716 3.03471184 C232.66921713 3.04284357 222.60493163 3.04544378 212.54063868 3.04669983 C196.21145166 3.04888771 179.88226963 3.05554067 163.55308533 3.06500244 C147.69208298 3.07418336 131.83108199 3.08126087 115.97007751 3.08551025 C114.50323429 3.08590434 114.50323429 3.08590434 113.00675786 3.08630639 C108.10087694 3.08761144 103.19499601 3.08887514 98.28911507 3.09011829 C57.59869999 3.1004827 16.9082904 3.11809387 -23.78211975 3.14044189 C-16.38432424 -0.77730059 -8.1709387 -0.00588286 0 0 Z " fill="#277AAB" transform="translate(104.78211975097656,2.85955810546875)"/>
<path d="M0 0 C0.33 0 0.66 0 1 0 C0.99962028 0.68307848 0.99924056 1.36615696 0.99884933 2.06993479 C0.97649477 42.51122447 0.95932535 82.95251336 0.94893467 123.39380797 C0.94768389 128.24439087 0.94638958 133.09497376 0.94506836 137.94555664 C0.94480605 138.9112629 0.94454374 139.87696916 0.94427348 140.87193925 C0.93991642 156.52995944 0.93202868 172.18797597 0.9228472 187.84599399 C0.91351165 203.90008476 0.9079446 219.95417361 0.90591151 236.00826699 C0.90453607 245.92281947 0.90018439 255.83736163 0.89208353 265.75191093 C0.88681729 272.54105551 0.88519543 279.33019471 0.88649862 286.11934119 C0.88714219 290.04241337 0.88612235 293.96546745 0.88079453 297.88853645 C0.87507398 302.13150847 0.87699871 306.37444142 0.87974548 310.61741638 C0.87683264 311.87127984 0.8739198 313.1251433 0.87091869 314.41700262 C0.87290974 315.54413044 0.87490079 316.67125826 0.87695217 317.83254147 C0.87657245 318.81335908 0.87619273 319.79417669 0.8758015 320.80471605 C0.75418319 322.97619554 0.75418319 322.97619554 2 324 C2.44696316 327.39166159 2.8220375 330.78187096 3.16210938 334.18554688 C3.52398908 338.54920486 3.52398908 338.54920486 6 342 C6.26991906 344.68839385 6.08737357 347.29141936 6 350 C3.49128725 347.49128725 3.03160943 345.45149818 2 342.0625 C1.67 341.00160156 1.34 339.94070313 1 338.84765625 C-1.4426221 329.44928605 -2.29069818 320.56961263 -2.25396729 310.86853027 C-2.25708727 309.58874094 -2.26020725 308.3089516 -2.26342177 306.99038076 C-2.27171178 303.4677414 -2.26767112 299.94521147 -2.26144934 296.4225719 C-2.25690193 292.61201435 -2.2639199 288.8014749 -2.26940918 284.99092102 C-2.2782805 277.53773909 -2.27639127 270.08459754 -2.2705839 262.63141406 C-2.2660585 256.57150799 -2.2654583 250.51161321 -2.26763153 244.45170593 C-2.267938 243.58768421 -2.26824446 242.72366248 -2.26856022 241.83345827 C-2.2691997 240.07795719 -2.26984812 238.32245611 -2.2705054 236.56695503 C-2.27620207 220.12377057 -2.26966121 203.68060845 -2.25890467 187.23742765 C-2.24996976 173.14281168 -2.25152199 159.04822866 -2.26074219 144.95361328 C-2.27145654 128.56737491 -2.27565281 112.1811561 -2.26951766 95.79491472 C-2.26888059 94.04604117 -2.26825185 92.29716762 -2.26763153 90.54829407 C-2.26732298 89.68792025 -2.26701443 88.82754644 -2.26669653 87.94110069 C-2.26497308 81.89177453 -2.26787712 75.84246082 -2.27259064 69.7931366 C-2.27821242 62.41631705 -2.27665579 55.03954004 -2.26602915 47.66272533 C-2.26078987 43.90236755 -2.2586858 40.14208058 -2.26532745 36.3817234 C-2.27243048 32.29824445 -2.26392233 28.21494272 -2.25396729 24.13146973 C-2.25842873 22.95314748 -2.26289017 21.77482524 -2.26748681 20.56079626 C-2.2341747 13.50031687 -1.52009795 6.89728045 0 0 Z " fill="#53ACAB" transform="translate(5,82)"/>
<path d="M0 0 C7.59 0.33 15.18 0.66 23 1 C23 1.66 23 2.32 23 3 C38.62883372 2.89289477 54.2576159 2.78015778 69.88635921 2.66066074 C77.14256597 2.60531219 84.39877764 2.55182757 91.6550293 2.50268555 C97.97736939 2.45986364 104.29967304 2.41359078 110.62195688 2.36312145 C113.97154607 2.33650437 117.32112795 2.31165099 120.6707592 2.29092598 C124.40417429 2.26696035 128.13749223 2.23689542 131.87084961 2.20532227 C133.54858963 2.19668907 133.54858963 2.19668907 135.26022339 2.18788147 C136.27129654 2.17809265 137.28236969 2.16830383 138.32408142 2.15821838 C139.20808089 2.15176583 140.09208036 2.14531328 141.0028677 2.1386652 C142.99920523 2.21960493 142.99920523 2.21960493 144 1 C146.12308153 0.90057194 148.24959672 0.87030816 150.375 0.875 C151.53773438 0.87242187 152.70046875 0.86984375 153.8984375 0.8671875 C157 1 157 1 160 2 C162.34598395 2.09258713 164.6945945 2.12192556 167.04240417 2.12025452 C167.76367266 2.12110894 168.48494115 2.12196337 169.22806627 2.12284368 C171.6510113 2.12449411 174.07388749 2.11898423 176.49682617 2.11352539 C178.23123676 2.1132434 179.96564747 2.11340149 181.70005798 2.1139679 C186.41461642 2.1142554 191.12914954 2.10836619 195.84370208 2.10139394 C200.76846549 2.09515265 205.69322946 2.09455598 210.61799622 2.09336853 C219.94646771 2.09025751 229.27492751 2.08204719 238.60339385 2.07201904 C249.222365 2.06085081 259.84133669 2.05534566 270.46031225 2.05032361 C292.30688136 2.0398644 314.15343994 2.02226937 336 2 C336 2.33 336 2.66 336 3 C332.42882006 3.81512941 329.13312809 4.12664305 325.47316074 4.13142776 C323.81482396 4.13718948 323.81482396 4.13718948 322.12298542 4.1430676 C320.9136687 4.14220112 319.70435197 4.14133463 318.45838928 4.14044189 C316.52506883 4.14489858 316.52506883 4.14489858 314.5526914 4.1494453 C310.97671384 4.15750391 307.40075637 4.15930424 303.82477081 4.16004276 C299.96701704 4.16189538 296.10927364 4.16944393 292.25152588 4.17617798 C283.81520202 4.1897553 275.37888291 4.19578552 266.94254994 4.20018864 C261.67138458 4.20295294 256.40022105 4.20719073 251.12905693 4.21169281 C236.5259427 4.22388634 221.92282994 4.23418442 207.31971073 4.2375679 C206.38517544 4.23778747 205.45064015 4.23800703 204.4877856 4.23823325 C203.08267323 4.23856067 203.08267323 4.23856067 201.64917475 4.2388947 C199.75106116 4.23933816 197.85294757 4.23978473 195.95483398 4.24023438 C194.54254644 4.24056652 194.54254644 4.24056652 193.10172784 4.24090537 C177.86017884 4.24484978 162.61867776 4.26229249 147.37714726 4.2855939 C131.71720762 4.30934098 116.05729197 4.32177134 100.39733404 4.32293582 C91.60969683 4.32385087 82.822122 4.32955996 74.03450203 4.34775543 C66.54818827 4.363202 59.06195616 4.36825024 51.57562948 4.36001733 C47.76022176 4.35612644 43.94497822 4.35696329 40.12959099 4.37107468 C35.98109827 4.38627675 31.83297102 4.37790069 27.6844635 4.36749268 C25.90060315 4.37957728 25.90060315 4.37957728 24.08070523 4.39190602 C15.68233333 4.34288688 8.14282659 3.02933139 0 1 C0 0.67 0 0.34 0 0 Z " fill="#3089B2" transform="translate(78,492)"/>
<path d="M0 0 C-2 2 -2 2 -5.4765625 2.1953125 C-6.85950968 2.18201493 -8.24238654 2.15816232 -9.625 2.125 C-10.33140625 2.11597656 -11.0378125 2.10695313 -11.765625 2.09765625 C-13.51056098 2.07407603 -15.25532295 2.03820461 -17 2 C-17 2.66 -17 3.32 -17 4 C-34.16 4 -51.32 4 -69 4 C-69.33 5.65 -69.66 7.3 -70 9 C-69.34 9 -68.68 9 -68 9 C-66.875 12.75 -66.875 12.75 -68 15 C-67.34 15 -66.68 15 -66 15 C-66 15.66 -66 16.32 -66 17 C-66.66 17.33 -67.32 17.66 -68 18 C-67.67 18.99 -67.34 19.98 -67 21 C-39.775 20.505 -39.775 20.505 -12 20 C-12 20.33 -12 20.66 -12 21 C-21.96622766 22.26658946 -31.87706618 22.29520461 -41.91210938 22.35009766 C-44.14463657 22.36675343 -46.37710843 22.3941674 -48.609375 22.43212891 C-51.84923579 22.48679205 -55.08786587 22.50874195 -58.328125 22.5234375 C-59.32402649 22.54610687 -60.31992798 22.56877625 -61.3460083 22.59213257 C-68.26379707 22.57096833 -68.26379707 22.57096833 -72.10449219 19.59228516 C-75.09462035 15.50300375 -75.51995485 13.11288935 -75 8 C-72.8272578 5.36983839 -71.05326212 3.52663106 -68 2 C-66.45012118 1.88665215 -64.89564759 1.83335125 -63.34179688 1.81054688 C-62.37318726 1.79382935 -61.40457764 1.77711182 -60.40661621 1.7598877 C-59.35462036 1.74631226 -58.30262451 1.73273682 -57.21875 1.71875 C-56.13549438 1.70034058 -55.05223877 1.68193115 -53.93615723 1.66296387 C-50.45749463 1.60408823 -46.9787806 1.55139872 -43.5 1.5 C-40.04978981 1.44839635 -36.5996408 1.39529028 -33.14953613 1.33703613 C-31.00140568 1.30078579 -28.85320785 1.26826775 -26.70495605 1.2401123 C-21.16748704 1.14696449 -15.72498247 0.85686558 -10.22277832 0.21496582 C-6.80454399 -0.11561305 -3.43160129 -0.06354817 0 0 Z " fill="#5890D4" transform="translate(298,307)"/>
<path d="M0 0 C2.46800047 1.15173355 4.04783565 2.04783565 6 4 C6.24291992 6.10717773 6.24291992 6.10717773 6.23046875 8.68359375 C6.22853516 9.61107422 6.22660156 10.53855469 6.22460938 11.49414062 C6.21236328 12.46544922 6.20011719 13.43675781 6.1875 14.4375 C6.18685547 15.40494141 6.18621094 16.37238281 6.18554688 17.36914062 C6.14052002 24.57843993 6.14052002 24.57843993 5 28 C2.69 28 0.38 28 -2 28 C-2.05796132 23.89589245 -2.09358313 19.79188984 -2.125 15.6875 C-2.14175781 14.52025391 -2.15851563 13.35300781 -2.17578125 12.15039062 C-2.18222656 11.03212891 -2.18867188 9.91386719 -2.1953125 8.76171875 C-2.20578613 7.73006592 -2.21625977 6.69841309 -2.22705078 5.63549805 C-2 3 -2 3 0 0 Z " fill="#297BDA" transform="translate(223,124)"/>
<path d="M0 0 C0.66 0 1.32 0 2 0 C2 32.01 2 64.02 2 97 C0.02 96.67 -1.96 96.34 -4 96 C-2.515 95.01 -2.515 95.01 -1 94 C-0.68413409 90.98247785 -0.56265221 88.16606714 -0.56762695 85.14404297 C-0.55233948 83.76835144 -0.55233948 83.76835144 -0.53674316 82.36486816 C-0.50647299 79.3239136 -0.49732586 76.28327328 -0.48828125 73.2421875 C-0.47144496 71.13753196 -0.45329616 69.03288653 -0.43388367 66.92825317 C-0.38626357 61.38148155 -0.35653197 55.83475093 -0.33044434 50.2878418 C-0.30069927 44.63061418 -0.25414827 38.97352807 -0.20898438 33.31640625 C-0.12281468 22.21101134 -0.05553032 11.1055874 0 0 Z " fill="#D0E3FA" transform="translate(260,138)"/>
<path d="M0 0 C0 31.68 0 63.36 0 96 C-0.99 96.495 -0.99 96.495 -2 97 C-2.00586624 95.83933014 -2.01173248 94.67866028 -2.01777649 93.4828186 C-2.07489954 82.56392427 -2.14760605 71.6452311 -2.23571491 60.72654152 C-2.28051183 55.11263071 -2.31974719 49.49879405 -2.34643555 43.88476562 C-2.37237577 38.47058447 -2.41271166 33.05668722 -2.46318626 27.64268112 C-2.47991802 25.57338355 -2.49139283 23.5040368 -2.49761391 21.43468094 C-2.50718667 18.54420192 -2.53516303 15.6544597 -2.56762695 12.76416016 C-2.56619186 11.90173203 -2.56475677 11.03930389 -2.5632782 10.15074158 C-2.56965706 7.53365176 -2.56965706 7.53365176 -3 4 C-3.99 3.34 -4.98 2.68 -6 2 C-3 0 -3 0 0 0 Z " fill="#C8DEF6" transform="translate(348,107)"/>
<path d="M0 0 C1.98 0.99 1.98 0.99 4 2 C3.67 2.66 3.34 3.32 3 4 C2.87713845 6.92841546 2.81422856 9.83456398 2.79467773 12.76416016 C2.78477814 13.67153427 2.77487854 14.57890839 2.76467896 15.51377869 C2.73301391 18.5221798 2.70828676 21.53059673 2.68359375 24.5390625 C2.66302854 26.62129128 2.64203219 28.70351584 2.62062073 30.78573608 C2.5653553 36.27332145 2.51596576 41.76094476 2.46777344 47.24859619 C2.41759103 52.84545276 2.36188797 58.44225404 2.30664062 64.0390625 C2.19900438 75.02599446 2.09757157 86.01297437 2 97 C1.34 96.67 0.68 96.34 0 96 C0 64.32 0 32.64 0 0 Z " fill="#D3EEFE" transform="translate(185,107)"/>
<path d="M0 0 C0.66 0 1.32 0 2 0 C2.20539025 5.7509271 1.67553066 10.50646751 0 16 C-0.22075195 16.72985107 -0.44150391 17.45970215 -0.66894531 18.21166992 C-4.81593207 31.24886475 -11.28932381 42.48289184 -20 53 C-21.02287109 54.25103516 -21.02287109 54.25103516 -22.06640625 55.52734375 C-26.24106029 60.43725976 -30.66742045 64.38348993 -36 68 C-35.690625 67.401875 -35.38125 66.80375 -35.0625 66.1875 C-33.89790296 63.91043228 -33.89790296 63.91043228 -33 61 C-31.0625 59.875 -31.0625 59.875 -29 59 C-28.01 58.505 -28.01 58.505 -27 58 C-26.67 57.01 -26.34 56.02 -26 55 C-24.34997172 53.64613064 -22.6825613 52.31321858 -21 51 C-18.87491756 47.81237635 -18.4979837 45.73487777 -18 42 C-16.68 42 -15.36 42 -14 42 C-14 40.35 -14 38.7 -14 37 C-13.01 36.505 -13.01 36.505 -12 36 C-11.67 35.01 -11.34 34.02 -11 33 C-10.34 33 -9.68 33 -9 33 C-8.7834375 31.824375 -8.7834375 31.824375 -8.5625 30.625 C-8 28 -8 28 -7 26 C-6.34 26 -5.68 26 -5 26 C-5 24.02 -5 22.04 -5 20 C-4.34 20 -3.68 20 -3 20 C-3 17.36 -3 14.72 -3 12 C-2.34 12 -1.68 12 -1 12 C-0.67 8.04 -0.34 4.08 0 0 Z " fill="#3E98B6" transform="translate(494,406)"/>
<path d="M0 0 C18.08255066 -0.68885907 36.87642802 8.08217095 51.42578125 18.171875 C51.92078125 19.161875 51.92078125 19.161875 52.42578125 20.171875 C46.45557505 18.38081314 41.18088874 15.64231974 35.703125 12.71875 C21.86120827 5.4968804 8.9424296 3.14530624 -6.51171875 2.609375 C-8.25291992 2.54459961 -8.25291992 2.54459961 -10.02929688 2.47851562 C-12.87750107 2.37302658 -15.72578404 2.27090945 -18.57421875 2.171875 C-18.57421875 1.841875 -18.57421875 1.511875 -18.57421875 1.171875 C-13.88717907 0.84982074 -9.19985246 0.54912549 -4.50927734 0.28320312 C-3.00570972 0.19669961 -1.50270817 0.10033256 0 0 Z " fill="#3C96B5" transform="translate(402.57421875,2.828125)"/>
<path d="M0 0 C8.36980236 2.19851951 16.11827559 5.49070196 24 9 C21.55860139 9.87780624 20.40915103 10.16272163 17.95703125 9.1875 C16.89548828 8.5996875 16.89548828 8.5996875 15.8125 8 C10.9186113 5.6262201 7.22572543 5.8634356 2 7 C2 7.66 2 8.32 2 9 C2.99 9 3.98 9 5 9 C5.33 9.66 5.66 10.32 6 11 C8.13585917 12.06536328 8.13585917 12.06536328 10.6875 13 C11.58597656 13.34546875 12.48445313 13.6909375 13.41015625 14.046875 C16.25472497 15.09374493 19.10947782 16.08720352 22 17 C21.67 17.66 21.34 18.32 21 19 C12.09945121 16.24892128 3.58356509 12.59701637 -5 9 C-4.67 8.34 -4.34 7.68 -4 7 C-3.01 7 -2.02 7 -1 7 C0.71711243 4.55503957 0.71711243 4.55503957 2 2 C1.34 2 0.68 2 0 2 C0 1.34 0 0.68 0 0 Z " fill="#3D80D4" transform="translate(192,99)"/>
<path d="M0 0 C0.66 0 1.32 0 2 0 C2 0.99 2 1.98 2 3 C1.071875 3.391875 0.14375 3.78375 -0.8125 4.1875 C-4.25921804 6.14739849 -5.16086758 7.59760503 -7 11 C-7.66 11 -8.32 11 -9 11 C-9.226875 11.7425 -9.45375 12.485 -9.6875 13.25 C-11.2589561 16.5425747 -12.99995716 17.97497109 -16 20 C-16.66 20 -17.32 20 -18 20 C-18 20.66 -18 21.32 -18 22 C-18.99 22.8971875 -18.99 22.8971875 -20 23.8125 C-22.26582026 25.84769078 -22.26582026 25.84769078 -22.25 28.75 C-22.12625 29.86375 -22.12625 29.86375 -22 31 C-23.32 31.33 -24.64 31.66 -26 32 C-26.33 33.32 -26.66 34.64 -27 36 C-27.66 36 -28.32 36 -29 36 C-29 36.66 -29 37.32 -29 38 C-29.66 38 -30.32 38 -31 38 C-25.34453352 22.80093384 -13.65665504 10.67051138 -1 1 C-0.67 0.67 -0.34 0.34 0 0 Z " fill="#2F8BC4" transform="translate(45,22)"/>
<path d="M0 0 C1.15628906 0.12632812 2.31257813 0.25265625 3.50390625 0.3828125 C4.60863281 0.51171875 5.71335938 0.640625 6.8515625 0.7734375 C7.84236816 0.88864746 8.83317383 1.00385742 9.85400391 1.12255859 C12.375 1.625 12.375 1.625 15.375 3.625 C13.77011719 3.51671875 13.77011719 3.51671875 12.1328125 3.40625 C2.27759837 2.78899718 -7.56294241 2.49307652 -17.4375 2.4375 C-18.5517334 2.42460937 -19.6659668 2.41171875 -20.81396484 2.3984375 C-26.20710822 2.39186551 -30.55059822 2.60015793 -35.625 4.625 C-38.5 4.25 -38.5 4.25 -40.625 3.625 C-40.625 3.295 -40.625 2.965 -40.625 2.625 C-39.94953125 2.50382812 -39.2740625 2.38265625 -38.578125 2.2578125 C-37.24007812 2.00644531 -37.24007812 2.00644531 -35.875 1.75 C-34.99328125 1.58757812 -34.1115625 1.42515625 -33.203125 1.2578125 C-30.67462309 0.76278752 -30.67462309 0.76278752 -28.83251953 -0.40136719 C-20.72199499 -3.97853727 -8.54817274 -1.02538635 0 0 Z " fill="#5390D4" transform="translate(237.625,264.375)"/>
<path d="M0 0 C0.33 0 0.66 0 1 0 C1 31.68 1 63.36 1 96 C1.66 96 2.32 96 3 96 C2.67 96.99 2.34 97.98 2 99 C0.68 99 -0.64 99 -2 99 C-1.67 98.01 -1.34 97.02 -1 96 C-0.90110961 94.66752504 -0.85400722 93.33078879 -0.84178162 91.9947052 C-0.8319928 91.18282242 -0.82220398 90.37093964 -0.81211853 89.53445435 C-0.80636307 88.64756927 -0.8006076 87.7606842 -0.79467773 86.84692383 C-0.78477814 85.91014297 -0.77487854 84.97336212 -0.76467896 84.00819397 C-0.73305911 80.90783222 -0.70830454 77.80745514 -0.68359375 74.70703125 C-0.66302465 72.55897114 -0.64202819 70.41091508 -0.62062073 68.26286316 C-0.56539557 62.60595987 -0.5159882 56.94902003 -0.46777344 51.29205322 C-0.41756169 45.52084088 -0.36187392 39.7496817 -0.30664062 33.97851562 C-0.1990536 22.65238915 -0.09760979 11.32621654 0 0 Z " fill="#4584D1" transform="translate(348,107)"/>
<path d="M0 0 C0.76568298 0.08890503 1.53136597 0.17781006 2.32025146 0.26940918 C15.37202155 1.80952155 15.37202155 1.80952155 17.75 4.1875 C4.69259657 3.51796632 -8.33904122 2.62474843 -21.375 1.625 C-23.22003949 1.48486014 -25.06509153 1.34488542 -26.91015625 1.20507812 C-31.35691706 0.86777897 -35.80350468 0.52828043 -40.25 0.1875 C-40.25 -0.1425 -40.25 -0.4725 -40.25 -0.8125 C-26.60747915 -2.16791244 -13.57009397 -1.62087531 0 0 Z " fill="#6298D7" transform="translate(298.25,268.8125)"/>
<path d="M0 0 C1.32 0.66 2.64 1.32 4 2 C-7.3872651 11.24754142 -23.84029069 21.42404781 -39 21 C-38.34 20.67 -37.68 20.34 -37 20 C-37 19.34 -37 18.68 -37 18 C-33.37 17.67 -29.74 17.34 -26 17 C-25.67 16.01 -25.34 15.02 -25 14 C-23.02 14 -21.04 14 -19 14 C-19 13.34 -19 12.68 -19 12 C-17.68 12 -16.36 12 -15 12 C-15 11.34 -15 10.68 -15 10 C-14.21625 9.896875 -13.4325 9.79375 -12.625 9.6875 C-9.66954819 9.22404978 -9.66954819 9.22404978 -8 6 C-6.68 6 -5.36 6 -4 6 C-4 5.34 -4 4.68 -4 4 C-3.34 4 -2.68 4 -2 4 C-2 3.34 -2 2.68 -2 2 C-1.34 2 -0.68 2 0 2 C0 1.34 0 0.68 0 0 Z " fill="#429EB6" transform="translate(453,473)"/>
<path d="M0 0 C3.3125 1.5 3.3125 1.5 6 3 C5.67 5.31 5.34 7.62 5 10 C3.3501725 9.57781184 1.70516335 9.13675575 0.0625 8.6875 C-0.85402344 8.44386719 -1.77054688 8.20023438 -2.71484375 7.94921875 C-3.84599609 7.47935547 -3.84599609 7.47935547 -5 7 C-5.33 6.01 -5.66 5.02 -6 4 C-6.99 4 -7.98 4 -9 4 C-9 3.34 -9 2.68 -9 2 C-5.84804496 0.13217479 -3.65318659 -0.43490317 0 0 Z " fill="#287BDB" transform="translate(203,104)"/>
<path d="M0 0 C8.55727 0.79233981 16.43225185 2.81782339 24 7 C24 7.99 24 8.98 24 10 C23.34 10 22.68 10 22 10 C22 10.99 22 11.98 22 13 C16.89665983 14.905247 12.53657294 16.42589023 7 16 C9.74093665 14.1727089 12.13825324 13.06301822 15.1875 11.875 C16.08855469 11.52179688 16.98960937 11.16859375 17.91796875 10.8046875 C18.60503906 10.53914063 19.29210937 10.27359375 20 10 C17.49316285 8.00340404 15.27696503 6.55068208 12.25 5.5 C11.56421875 5.25636719 10.8784375 5.01273437 10.171875 4.76171875 C9.45515625 4.51035156 8.7384375 4.25898437 8 4 C6.49874467 3.44085898 4.99868551 2.87849293 3.5 2.3125 C2.345 1.879375 1.19 1.44625 0 1 C0 0.67 0 0.34 0 0 Z " fill="#4B8AD4" transform="translate(320,88)"/>
<path d="M0 0 C4.58700726 0.4898103 7.11023326 1.49618093 10.6875 4.375 C15.8272814 8.18485319 20.77695527 9.75775723 27 11 C27 11.66 27 12.32 27 13 C27.639375 13.12375 28.27875 13.2475 28.9375 13.375 C29.618125 13.58125 30.29875 13.7875 31 14 C31.33 14.66 31.66 15.32 32 16 C19.95274127 14.29921053 9.73713846 7.97156067 0 1 C0 0.67 0 0.34 0 0 Z " fill="#3F9BB6" transform="translate(46,476)"/>
<path d="M0 0 C0.309375 0.639375 0.61875 1.27875 0.9375 1.9375 C1.8345163 3.93610821 1.8345163 3.93610821 3 5 C3.44696316 8.39166159 3.8220375 11.78187096 4.16210938 15.18554688 C4.52398908 19.54920486 4.52398908 19.54920486 7 23 C7.26991906 25.68839385 7.08737357 28.29141936 7 31 C4.42178861 28.42178861 3.97565192 26.17300626 2.9375 22.6875 C2.59589844 21.55699219 2.25429687 20.42648437 1.90234375 19.26171875 C0.56496371 14.42746622 -0.12304025 10.212341 -0.0625 5.1875 C-0.05347656 4.21167969 -0.04445312 3.23585938 -0.03515625 2.23046875 C-0.02355469 1.49441406 -0.01195312 0.75835937 0 0 Z " fill="#409DB9" transform="translate(4,401)"/>
<path d="M0 0 C0.33 0 0.66 0 1 0 C0.67 17.82 0.34 35.64 0 54 C-0.33 54 -0.66 54 -1 54 C-1.19391536 48.07791681 -1.37235637 42.15563238 -1.53710938 36.23266602 C-1.59513829 34.22212542 -1.65723156 32.21169752 -1.72363281 30.20141602 C-2.42658792 8.75595997 -2.42658792 8.75595997 0 0 Z " fill="#3083B6" transform="translate(5,82)"/>
<path d="M0 0 C3.17357638 3.55403437 4.34493993 7.57217753 5.625 12.0625 C5.84373779 12.8145874 6.06247559 13.5666748 6.2878418 14.34155273 C7.92317335 20.19507589 8.85530481 25.90964802 9 32 C6.99315251 28.98972876 6.416871 27.09991626 5.625 23.625 C4.27218916 17.92238199 2.59169529 12.38136089 0.76953125 6.8125 C0 4 0 4 0 0 Z " fill="#47A3AC" transform="translate(488,64)"/>
<path d="M0 0 C1.32 0.33 2.64 0.66 4 1 C-3.91677574 7.14813435 -11.63418516 11.8183538 -22 11 C-21.67 10.01 -21.34 9.02 -21 8 C-14.07 7.01 -14.07 7.01 -7 6 C-6.67 5.01 -6.34 4.02 -6 3 C-2.9375 1.8125 -2.9375 1.8125 0 1 C0 0.67 0 0.34 0 0 Z " fill="#4F89D1" transform="translate(333,313)"/>
<path d="M0 0 C0 0.99 0 1.98 0 3 C0.33 3.33 0.66 3.66 1 4 C1 4.66 1 5.32 1 6 C-0.423125 7.11375 -0.423125 7.11375 -1.875 8.25 C-5.045591 10.75506601 -6.07442908 13.02004503 -7 17 C-7.33 16.34 -7.66 15.68 -8 15 C-8.99 15 -9.98 15 -11 15 C-11 15.66 -11 16.32 -11 17 C-11.66 17 -12.32 17 -13 17 C-11.2703384 12.79046213 -8.31793255 9.64856424 -5.375 6.25 C-4.859375 5.64800781 -4.34375 5.04601562 -3.8125 4.42578125 C-2.54530865 2.94739134 -1.27314225 1.47326829 0 0 Z " fill="#4E8DD5" transform="translate(171,399)"/>
<path d="M0 0 C2.97 0.495 2.97 0.495 6 1 C5.01 1.66 4.02 2.32 3 3 C2.49156938 5.31753588 2.49156938 5.31753588 2.48828125 8.0078125 C2.45283203 8.99394531 2.41738281 9.98007813 2.38085938 10.99609375 C2.35830078 12.02863281 2.33574219 13.06117188 2.3125 14.125 C2.27833984 15.16527344 2.24417969 16.20554688 2.20898438 17.27734375 C2.12632942 19.85145507 2.05723845 22.42521829 2 25 C1.34 25.33 0.68 25.66 0 26 C0 17.42 0 8.84 0 0 Z " fill="#BBD8F4" transform="translate(230,126)"/>
<path d="M0 0 C0.66 0.33 1.32 0.66 2 1 C-0.86537041 4.02455766 -3.26771055 6.1982051 -7 8 C-7.99 9.485 -7.99 9.485 -9 11 C-10.66666667 11.66666667 -12.33333333 12.33333333 -14 13 C-14.99 14.485 -14.99 14.485 -16 16 C-19.125 16.6875 -19.125 16.6875 -22 17 C-18.67506634 13.41738398 -14.98571343 10.71832725 -11 7.9375 C-9.77055888 7.07200432 -8.54138514 6.20612866 -7.3125 5.33984375 C-6.74015625 4.93749512 -6.1678125 4.53514648 -5.578125 4.12060547 C-3.69225478 2.78147423 -1.83922509 1.40240913 0 0 Z " fill="#4D88CF" transform="translate(333,367)"/>
<path d="M0 0 C3.68754757 0.49831724 5.60490662 1.10067643 8 4 C8.33 3.01 8.66 2.02 9 1 C9.66 1.66 10.32 2.32 11 3 C10.34 4.32 9.68 5.64 9 7 C12.465 6.505 12.465 6.505 16 6 C16 8.31 16 10.62 16 13 C12.08378085 10.7805705 8.66313662 8.2318151 5.1875 5.375 C4.21167969 4.57835937 3.23585937 3.78171875 2.23046875 2.9609375 C1.49441406 2.31382812 0.75835937 1.66671875 0 1 C0 0.67 0 0.34 0 0 Z " fill="#4585D1" transform="translate(134,364)"/>
<path d="M0 0 C7.59 0.33 15.18 0.66 23 1 C23 1.99 23 2.98 23 4 C14.98298054 4.41467342 7.78069851 2.85939879 0 1 C0 0.67 0 0.34 0 0 Z " fill="#459EB3" transform="translate(78,492)"/>
<path d="M0 0 C0.75 1.75 0.75 1.75 1 4 C-1 6 -1 6 -3 8 C-3.33498301 10.66834966 -3.33498301 10.66834966 -3 13 C-4.32 13.33 -5.64 13.66 -7 14 C-7.33 15.32 -7.66 16.64 -8 18 C-8.66 18 -9.32 18 -10 18 C-10 18.66 -10 19.32 -10 20 C-10.66 20 -11.32 20 -12 20 C-10.59434539 16.14668811 -8.78799023 12.87863435 -6.5625 9.4375 C-5.96566406 8.50808594 -5.36882813 7.57867187 -4.75390625 6.62109375 C-3.23590351 4.35254177 -1.66399188 2.16268058 0 0 Z " fill="#4299B6" transform="translate(26,40)"/>
<path d="M0 0 C0.66 0.33 1.32 0.66 2 1 C-3.48163726 8.04967062 -9.10487086 14.31111095 -16 20 C-16 16.82629722 -15.69066658 15.6205332 -14 13 C-12 11.8125 -12 11.8125 -10 11 C-9.34 10.67 -8.68 10.34 -8 10 C-7.67 9.01 -7.34 8.02 -7 7 C-5.34997172 5.64613064 -3.6825613 4.31321858 -2 3 C-1.34 2.01 -0.68 1.02 0 0 Z " fill="#4698AD" transform="translate(475,454)"/>
<path d="M0 0 C0.66 0.33 1.32 0.66 2 1 C1.34 2.65 0.68 4.3 0 6 C-1.11375 6.0825 -2.2275 6.165 -3.375 6.25 C-4.57125 6.4975 -5.7675 6.745 -7 7 C-7.69937532 8.31647119 -8.36729133 9.65022151 -9 11 C-12.125 11.75 -12.125 11.75 -15 12 C-11.99764638 8.82608332 -8.80246358 6.28747399 -5.25 3.75 C-4.26515625 3.04359375 -3.2803125 2.3371875 -2.265625 1.609375 C-1.51796875 1.07828125 -0.7703125 0.5471875 0 0 Z " fill="#4687D2" transform="translate(396,322)"/>
<path d="M0 0 C2.64 0 5.28 0 8 0 C8 0.66 8 1.32 8 2 C12.455 1.505 12.455 1.505 17 1 C13.65418245 2.67290878 10.32089422 4.17721643 6.875 5.625 C5.29332031 6.29402344 5.29332031 6.29402344 3.6796875 6.9765625 C1 8 1 8 -1 8 C-1 7.34 -1 6.68 -1 6 C0.65 5.34 2.3 4.68 4 4 C2.68 2.68 1.36 1.36 0 0 Z " fill="#3C82D1" transform="translate(232,72)"/>
<path d="M0 0 C0 0.66 0 1.32 0 2 C-0.99 2 -1.98 2 -3 2 C-3.66 3.65 -4.32 5.3 -5 7 C-7.31 6.67 -9.62 6.34 -12 6 C-12.33 6.99 -12.66 7.98 -13 9 C-13.99 8.67 -14.98 8.34 -16 8 C-16 7.34 -16 6.68 -16 6 C-13.7101766 4.9955866 -11.4183401 3.99632388 -9.125 3 C-8.14853516 2.57074219 -8.14853516 2.57074219 -7.15234375 2.1328125 C-2.2265625 0 -2.2265625 0 0 0 Z " fill="#4085D3" transform="translate(291,119)"/>
<path d="M0 0 C2.97 0.495 2.97 0.495 6 1 C5.67 2.65 5.34 4.3 5 6 C4.360625 6.12375 3.72125 6.2475 3.0625 6.375 C2.381875 6.58125 1.70125 6.7875 1 7 C0.67 7.66 0.34 8.32 0 9 C-1.96903371 9.29535506 -3.94083576 9.58172087 -5.921875 9.78125 C-8.31913458 10.03359311 -10.64629057 10.48512606 -13 11 C-8.35714978 6.76087588 -1.97389628 5.43916592 4 4 C4 3.34 4 2.68 4 2 C2.68 1.34 1.36 0.68 0 0 Z " fill="#508ED6" transform="translate(294,77)"/>
<path d="M0 0 C2.64 0.33 5.28 0.66 8 1 C8 1.66 8 2.32 8 3 C9.3303125 2.938125 9.3303125 2.938125 10.6875 2.875 C13.97277013 2.99897246 16.05449295 3.61387904 19 5 C19 5.66 19 6.32 19 7 C19.66 7 20.32 7 21 7 C21 7.66 21 8.32 21 9 C13.81783567 6.72564796 6.9241798 3.96415819 0 1 C0 0.67 0 0.34 0 0 Z " fill="#5D93D9" transform="translate(272,68)"/>
<path d="M0 0 C0.33 0.99 0.66 1.98 1 3 C0.01 3.33 -0.98 3.66 -2 4 C-1.896875 4.7425 -1.79375 5.485 -1.6875 6.25 C-2 9 -2 9 -4.375 11 C-5.24125 11.66 -6.1075 12.32 -7 13 C-8.33298974 15.61818456 -8.33298974 15.61818456 -9 18 C-9.33 18 -9.66 18 -10 18 C-10.49642867 13.86723131 -10.19761644 12.2900727 -7.8125 8.7890625 C-6.88981794 7.72138755 -5.95178286 6.66681637 -5 5.625 C-4.52304688 5.07972656 -4.04609375 4.53445313 -3.5546875 3.97265625 C-2.38290278 2.63682167 -1.19317995 1.3167593 0 0 Z " fill="#D0E7F9" transform="translate(83,359)"/>
<path d="M0 0 C1.18062657 3.69344663 0.56058327 5.3516837 -1.09765625 8.8515625 C-2.87160173 13.07524222 -3.87015974 17.56878252 -5 22 C-5.66 22 -6.32 22 -7 22 C-6.44147333 16.5632024 -5.06042383 12.0816633 -2.9375 7.0625 C-2.65583984 6.37865234 -2.37417969 5.69480469 -2.08398438 4.99023438 C-1.3964595 3.32386054 -0.69923825 1.66149273 0 0 Z " fill="#48A2AD" transform="translate(13,60)"/>
<path d="M0 0 C0.66 0.33 1.32 0.66 2 1 C1.43410156 1.65226562 0.86820313 2.30453125 0.28515625 2.9765625 C-0.44832031 3.85054688 -1.18179688 4.72453125 -1.9375 5.625 C-3.03384766 6.91277344 -3.03384766 6.91277344 -4.15234375 8.2265625 C-6.16629642 11.24962041 -6.66898168 13.41659535 -7 17 C-7.33 17 -7.66 17 -8 17 C-8.18765823 7.24177215 -8.18765823 7.24177215 -5.37109375 4.296875 C-4.73300781 3.78640625 -4.09492187 3.2759375 -3.4375 2.75 C-2.79683594 2.22921875 -2.15617187 1.7084375 -1.49609375 1.171875 C-1.00238281 0.78515625 -0.50867188 0.3984375 0 0 Z " fill="#4580CD" transform="translate(80,360)"/>
<path d="M0 0 C-0.969375 0.2475 -1.93875 0.495 -2.9375 0.75 C-3.948125 1.1625 -4.95875 1.575 -6 2 C-6.96877057 4.03243548 -6.96877057 4.03243548 -7 6 C-6.01 6.33 -5.02 6.66 -4 7 C-4.99 7.495 -4.99 7.495 -6 8 C-8.35981813 7.06421005 -10.69631264 6.06652192 -13 5 C-13 4.34 -13 3.68 -13 3 C-11.21189234 2.30329584 -9.41937948 1.61788811 -7.625 0.9375 C-6.62726563 0.55464844 -5.62953125 0.17179687 -4.6015625 -0.22265625 C-2 -1 -2 -1 0 0 Z " fill="#CBE7FB" transform="translate(252,113)"/>
<path d="M0 0 C-0.33 0.61875 -0.66 1.2375 -1 1.875 C-2.14193235 3.91018344 -2.14193235 3.91018344 -2 6 C-4.64 5.34 -7.28 4.68 -10 4 C-9 1 -9 1 -6.6875 -0.25 C-3.90126985 -1.0275526 -2.66561622 -0.98726527 0 0 Z " fill="#D3EAFA" transform="translate(200,95)"/>
<path d="M0 0 C-1.06541016 0.41572266 -1.06541016 0.41572266 -2.15234375 0.83984375 C-3.53099609 1.38318359 -3.53099609 1.38318359 -4.9375 1.9375 C-5.85402344 2.29714844 -6.77054688 2.65679687 -7.71484375 3.02734375 C-9.92418533 3.7996218 -9.92418533 3.7996218 -11 5 C-12.66617115 5.04063832 -14.33388095 5.042721 -16 5 C-16 5.66 -16 6.32 -16 7 C-17.65 7 -19.3 7 -21 7 C-17.74397004 4.2866417 -14.43846872 2.78564147 -10.5 1.25 C-9.3759375 0.80140625 -8.251875 0.3528125 -7.09375 -0.109375 C-4.08998328 -0.97409572 -2.84198054 -1.14236473 0 0 Z " fill="#48A4B3" transform="translate(81,7)"/>
<path d="M0 0 C1.32 0.66 2.64 1.32 4 2 C2.40207898 3.17520646 0.79643092 4.33991247 -0.8125 5.5 C-2.15248047 6.47453125 -2.15248047 6.47453125 -3.51953125 7.46875 C-6 9 -6 9 -9 9 C-8.67 8.01 -8.34 7.02 -8 6 C-6.68 6 -5.36 6 -4 6 C-4 5.34 -4 4.68 -4 4 C-3.34 4 -2.68 4 -2 4 C-2 3.34 -2 2.68 -2 2 C-1.34 2 -0.68 2 0 2 C0 1.34 0 0.68 0 0 Z " fill="#3B91B9" transform="translate(453,473)"/>
<path d="M0 0 C2.0859375 0.421875 2.0859375 0.421875 4 1 C2.3790787 2.17232685 0.75313167 3.3377077 -0.875 4.5 C-1.77992187 5.1496875 -2.68484375 5.799375 -3.6171875 6.46875 C-6 8 -6 8 -8 8 C-7.34 9.32 -6.68 10.64 -6 12 C-6.99 12.495 -6.99 12.495 -8 13 C-8.33 10.69 -8.66 8.38 -9 6 C-8.071875 5.566875 -7.14375 5.13375 -6.1875 4.6875 C-3.05725756 3.25425758 -3.05725756 3.25425758 -1.375 1.25 C-0.92125 0.8375 -0.4675 0.425 0 0 Z " fill="#4C84CE" transform="translate(124,315)"/>
<path d="M0 0 C0.70511719 0.16371094 1.41023437 0.32742187 2.13671875 0.49609375 C5.09658688 1.01699824 7.81061273 1.09866732 10.8125 1.0625 C11.78832031 1.05347656 12.76414063 1.04445313 13.76953125 1.03515625 C14.50558594 1.02355469 15.24164063 1.01195313 16 1 C15.01 2.32 14.02 3.64 13 5 C8.02693484 4.50269348 4.36200187 3.44697666 0 1 C0 0.67 0 0.34 0 0 Z " fill="#3C82D2" transform="translate(216,109)"/>
<path d="M0 0 C5.05663427 3.42066436 7.83507897 7.91002391 11 13 C10.67 13.66 10.34 14.32 10 15 C8 14 8 14 7 11 C5.58333333 9.41666667 5.58333333 9.41666667 4 8 C2.0276801 6.0276801 1.10526098 4.52631081 0 2 C0 1.34 0 0.68 0 0 Z " fill="#419DB7" transform="translate(472,39)"/>
<path d="M0 0 C0.33 0.99 0.66 1.98 1 3 C-0.77442409 5.99816485 -2.53540571 8.53540571 -5 11 C-5.99 11 -6.98 11 -8 11 C-6.63629701 8.00779732 -5.05091917 5.70973471 -2.875 3.25 C-2.33617188 2.63640625 -1.79734375 2.0228125 -1.2421875 1.390625 C-0.62730469 0.70226562 -0.62730469 0.70226562 0 0 Z " fill="#D7EAFB" transform="translate(92,348)"/>
<path d="M0 0 C6.41991126 0.57065878 12.01589463 2.67344909 18 5 C17.67 5.66 17.34 6.32 17 7 C11.27789404 5.13236819 5.62338249 3.14710968 0 1 C0 0.67 0 0.34 0 0 Z " fill="#4C88D6" transform="translate(196,111)"/>
<path d="M0 0 C4.78504172 2.48454089 7.86077669 4.47951843 11 9 C8.03 8.505 8.03 8.505 5 8 C5 7.34 5 6.68 5 6 C4.34 6 3.68 6 3 6 C3 5.34 3 4.68 3 4 C2.34 4 1.68 4 1 4 C0.67 2.68 0.34 1.36 0 0 Z " fill="#3C96B7" transform="translate(455,23)"/>
<path d="M0 0 C0.99 0.33 1.98 0.66 3 1 C3.02694851 2.95825873 3.04637218 4.91662226 3.0625 6.875 C3.07410156 7.96554687 3.08570313 9.05609375 3.09765625 10.1796875 C3 13 3 13 2 15 C1.34 15 0.68 15 0 15 C0 10.05 0 5.1 0 0 Z " fill="#407ECE" transform="translate(327,281)"/>
<path d="M0 0 C0.33 0 0.66 0 1 0 C1.10331031 7.42686315 0.99862699 14.63512596 0 22 C-0.33 22 -0.66 22 -1 22 C-2.11032496 14.24272966 -1.78540355 7.62854246 0 0 Z " fill="#3E9DB3" transform="translate(5,82)"/>
<path d="M0 0 C0.33 0 0.66 0 1 0 C1.66 2.97 2.32 5.94 3 9 C2.01 9.495 2.01 9.495 1 10 C0.67 9.34 0.34 8.68 0 8 C-1.32 9.32 -2.64 10.64 -4 12 C-4.99 11.67 -5.98 11.34 -7 11 C-6.01 10.67 -5.02 10.34 -4 10 C-2.86454438 7.70465742 -2.86454438 7.70465742 -2 5 C-1.33333333 3.33333333 -0.66666667 1.66666667 0 0 Z " fill="#508DD5" transform="translate(427,294)"/>
<path d="M0 0 C-0.33 0.66 -0.66 1.32 -1 2 C-3.109375 2.59765625 -3.109375 2.59765625 -5.75 3.0625 C-7.04164063 3.29646484 -7.04164063 3.29646484 -8.359375 3.53515625 C-9.66648437 3.76525391 -9.66648437 3.76525391 -11 4 C-12.66745913 4.32934621 -14.33437838 4.66148338 -16 5 C-11.53321948 1.09156705 -5.86504904 -1.93756084 0 0 Z " fill="#6B9FDD" transform="translate(341,209)"/>
<path d="M0 0 C2.00720923 0.28674418 4.0085944 0.61866701 6 1 C5.67 1.66 5.34 2.32 5 3 C2.9375 3.625 2.9375 3.625 1 4 C1.66 4.66 2.32 5.32 3 6 C1.02 6.33 -0.96 6.66 -3 7 C-1.125 1.125 -1.125 1.125 0 0 Z " fill="#2B7AE0" transform="translate(298,117)"/>
<path d="M0 0 C0.66 0.33 1.32 0.66 2 1 C-0.33333333 3.33333333 -2.66666667 5.66666667 -5 8 C-6.32 8 -7.64 8 -9 8 C-9 7.34 -9 6.68 -9 6 C-7.03125 4.4921875 -7.03125 4.4921875 -4.5 2.875 C-3.6646875 2.33617187 -2.829375 1.79734375 -1.96875 1.2421875 C-1.3190625 0.83226562 -0.669375 0.42234375 0 0 Z " fill="#5691D3" transform="translate(361,347)"/>
<path d="M0 0 C0.66 0.33 1.32 0.66 2 1 C1.01 2.98 0.02 4.96 -1 7 C-3.31 7 -5.62 7 -8 7 C-5.4837822 4.39391727 -2.94865641 2.10618315 0 0 Z " fill="#4B8AD4" transform="translate(379,334)"/>
<path d="M0 0 C3.98381075 2.16264012 6.88983545 4.71211176 10 8 C7.69 8 5.38 8 3 8 C2.67 6.02 2.34 4.04 2 2 C1.34 2 0.68 2 0 2 C0 1.34 0 0.68 0 0 Z " fill="#3D80D1" transform="translate(126,334)"/>
<path d="M0 0 C5.46864457 1.01591421 10.76390013 2.07091057 16 4 C16 4.33 16 4.66 16 5 C10.06997733 5.37851209 5.52760359 4.10575375 0 2 C0 1.34 0 0.68 0 0 Z " fill="#4BA3AA" transform="translate(416,5)"/>
<path d="M0 0 C0.99 0.33 1.98 0.66 3 1 C-1.21255542 4.22997426 -5.36291061 7.39163722 -10 10 C-9.67 8.68 -9.34 7.36 -9 6 C-8.01 6 -7.02 6 -6 6 C-6 5.34 -6 4.68 -6 4 C-5.01 4 -4.02 4 -3 4 C-3 3.34 -3 2.68 -3 2 C-2.01 2 -1.02 2 0 2 C0 1.34 0 0.68 0 0 Z " fill="#D4ECFC" transform="translate(386,327)"/>
<path d="M0 0 C-4.34242429 4.34242429 -8.13551546 4.7444669 -14 5 C-10.63156097 2.05261585 -4.40469071 -2.20234535 0 0 Z " fill="#5D95DC" transform="translate(281,89)"/>
<path d="M0 0 C1.65 0.33 3.3 0.66 5 1 C5.33 1.99 5.66 2.98 6 4 C8.01508358 4.73323796 8.01508358 4.73323796 10 5 C9.67 5.99 9.34 6.98 9 8 C7.2925002 6.71937515 5.62626404 5.38232443 4 4 C4 3.34 4 2.68 4 2 C2.35 2.66 0.7 3.32 -1 4 C-0.67 2.68 -0.34 1.36 0 0 Z " fill="#4E8DD2" transform="translate(99,336)"/>
<path d="M0 0 C3.37462715 0.54723683 5.08235 1.0549 8 3 C4.37 4.32 0.74 5.64 -3 7 C-2.67 6.01 -2.34 5.02 -2 4 C-0.68 4 0.64 4 2 4 C2 3.34 2 2.68 2 2 C1.34 2 0.68 2 0 2 C0 1.34 0 0.68 0 0 Z " fill="#3980D2" transform="translate(270,98)"/>
<path d="M0 0 C2.0625 0.4375 2.0625 0.4375 4 1 C3.360625 1.268125 2.72125 1.53625 2.0625 1.8125 C-0.33131686 2.88667752 -0.33131686 2.88667752 -1 6 C-2.65 6 -4.3 6 -6 6 C-4 4 -2 2 0 0 Z " fill="#4D8CD1" transform="translate(341,361)"/>
<path d="M0 0 C1.2065625 0.0309375 1.2065625 0.0309375 2.4375 0.0625 C0.99496343 3.42841866 -0.89514727 5.57297079 -3.5625 8.0625 C-3.60491723 5.72955225 -3.60342937 3.39547433 -3.5625 1.0625 C-2.5625 0.0625 -2.5625 0.0625 0 0 Z " fill="#4082D2" transform="translate(95.5625,339.9375)"/>
<path d="M0 0 C-0.639375 0.103125 -1.27875 0.20625 -1.9375 0.3125 C-2.618125 0.539375 -3.29875 0.76625 -4 1 C-4.33 1.99 -4.66 2.98 -5 4 C-8.3 4.33 -11.6 4.66 -15 5 C-12.62383533 2.62383533 -10.64650479 1.95931819 -7.5 0.8125 C-6.5203125 0.44769531 -5.540625 0.08289063 -4.53125 -0.29296875 C-2 -1 -2 -1 0 0 Z " fill="#649ADA" transform="translate(296,227)"/>
<path d="M0 0 C4.37934119 0.51958285 8.68803391 1.05675742 13 2 C13 2.99 13 3.98 13 5 C8.39146203 4.27991594 4.32762591 2.68704061 0 1 C0 0.67 0 0.34 0 0 Z " fill="#6698DB" transform="translate(320,88)"/>
<path d="M0 0 C4.42857143 5.14285714 4.42857143 5.14285714 5 9 C4.01 9.33 3.02 9.66 2 10 C-0.09350689 6.5980513 -0.17942163 3.94727588 0 0 Z " fill="#3A98C0" transform="translate(483,54)"/>
<path d="M0 0 C-1.75864246 2.1793144 -2.69396 2.93686419 -5.48046875 3.51171875 C-6.82044922 3.59873047 -6.82044922 3.59873047 -8.1875 3.6875 C-9.08855469 3.75324219 -9.98960937 3.81898437 -10.91796875 3.88671875 C-11.60503906 3.92410156 -12.29210937 3.96148437 -13 4 C-10.81006393 1.81006393 -9.4012702 1.27802011 -6.5 0.3125 C-5.7059375 0.04050781 -4.911875 -0.23148437 -4.09375 -0.51171875 C-2 -1 -2 -1 0 0 Z " fill="#548FD5" transform="translate(251,102)"/>
<path d="M0 0 C0 0.99 0 1.98 0 3 C-1.36125 3.61875 -1.36125 3.61875 -2.75 4.25 C-5.79665618 5.89050718 -7.71126806 7.44718361 -10 10 C-10.66 9.67 -11.32 9.34 -12 9 C-10.38050958 7.49405319 -8.75424026 5.99539332 -7.125 4.5 C-6.22007813 3.6646875 -5.31515625 2.829375 -4.3828125 1.96875 C-2 0 -2 0 0 0 Z " fill="#4C9FAD" transform="translate(47,22)"/>
<path d="M0 0 C0.66 0 1.32 0 2 0 C2.33 1.98 2.66 3.96 3 6 C3.99 6.33 4.98 6.66 6 7 C6 7.99 6 8.98 6 10 C3 9 3 9 1.3125 6.125 C0 3 0 3 0 0 Z " fill="#449EB4" transform="translate(11,432)"/>
<path d="M0 0 C1.32 0.33 2.64 0.66 4 1 C2.54550599 2.0055761 1.08627557 3.00430435 -0.375 4 C-1.59316406 4.8353125 -1.59316406 4.8353125 -2.8359375 5.6875 C-5 7 -5 7 -7 7 C-7 6.01 -7 5.02 -7 4 C-6.01 4 -5.02 4 -4 4 C-4 3.34 -4 2.68 -4 2 C-2.68 2 -1.36 2 0 2 C0 1.34 0 0.68 0 0 Z " fill="#4182D0" transform="translate(188,273)"/>
<path d="M0 0 C0.33 0 0.66 0 1 0 C1.25 2.75 1.25 2.75 1 6 C-1 8.375 -1 8.375 -3 10 C-3.33 9.34 -3.66 8.68 -4 8 C-3.67 7.01 -3.34 6.02 -3 5 C-2.34 5 -1.68 5 -1 5 C-0.67 3.35 -0.34 1.7 0 0 Z " fill="#328EBE" transform="translate(486,434)"/>
<path d="M0 0 C0.99 0.33 1.98 0.66 3 1 C0.23116 3.60596706 -1.36899922 4.91339205 -5.1875 5.4375 C-6.115625 5.293125 -7.04375 5.14875 -8 5 C-8.66 4.01 -9.32 3.02 -10 2 C-7.03 2.33 -4.06 2.66 -1 3 C-0.67 2.01 -0.34 1.02 0 0 Z " fill="#BCD9F2" transform="translate(145,427)"/>
<path d="M0 0 C0.33 0.99 0.66 1.98 1 3 C-0.40445835 5.2636564 -2.1967913 7.0208685 -4 9 C-4.99 8.67 -5.98 8.34 -7 8 C-4.69 5.36 -2.38 2.72 0 0 Z " fill="#518BD2" transform="translate(153,421)"/>
<path d="M0 0 C1.08667969 0.01804687 2.17335937 0.03609375 3.29296875 0.0546875 C4.54013672 0.08949219 4.54013672 0.08949219 5.8125 0.125 C5.8125 0.455 5.8125 0.785 5.8125 1.125 C2.1825 1.125 -1.4475 1.125 -5.1875 1.125 C-5.1875 2.115 -5.1875 3.105 -5.1875 4.125 C-6.5075 4.125 -7.8275 4.125 -9.1875 4.125 C-9.1875 3.465 -9.1875 2.805 -9.1875 2.125 C-5.66070901 -0.22619399 -4.15870515 -0.08943452 0 0 Z " fill="#4E87CD" transform="translate(234.1875,309.875)"/>
<path d="M0 0 C0.70125 0.144375 1.4025 0.28875 2.125 0.4375 C5.07556141 1.01478375 8.03270151 1.51695141 11 2 C11 2.66 11 3.32 11 4 C11.66 4 12.32 4 13 4 C13 4.66 13 5.32 13 6 C3.40546697 3.10933941 3.40546697 3.10933941 0 0 Z " fill="#C6E0F9" transform="translate(219,218)"/>
<path d="M0 0 C1.9375 0.375 1.9375 0.375 4 1 C4.33 1.66 4.66 2.32 5 3 C5.99 3.33 6.98 3.66 8 4 C8 4.66 8 5.32 8 6 C5.03 5.01 2.06 4.02 -1 3 C-0.67 2.01 -0.34 1.02 0 0 Z " fill="#CEE7FA" transform="translate(188,203)"/>
<path d="M0 0 C0 2.31 0 4.62 0 7 C-2.5 5.625 -2.5 5.625 -5 4 C-5 3.34 -5 2.68 -5 2 C-2 0 -2 0 0 0 Z " fill="#3980D1" transform="translate(150,370)"/>
<path d="M0 0 C2.64 0 5.28 0 8 0 C6.875 1.5 6.875 1.5 5 3 C1.8125 3.1875 1.8125 3.1875 -1 3 C-0.67 2.01 -0.34 1.02 0 0 Z " fill="#4484CF" transform="translate(312,321)"/>
<path d="M0 0 C-2.1875 2.0625 -2.1875 2.0625 -5 4 C-7.8125 3.75 -7.8125 3.75 -10 3 C-9 1 -9 1 -6.6875 -0.1875 C-3.88010429 -1.03624754 -2.698065 -0.99928333 0 0 Z " fill="#D5ECFC" transform="translate(340,112)"/>
<path d="M0 0 C2.475 0.495 2.475 0.495 5 1 C5 1.66 5 2.32 5 3 C5.99 3 6.98 3 8 3 C7.67 4.32 7.34 5.64 7 7 C5.83040013 6.02433888 4.66438823 5.044375 3.5 4.0625 C2.8503125 3.51722656 2.200625 2.97195313 1.53125 2.41015625 C1.0259375 1.94480469 0.520625 1.47945313 0 1 C0 0.67 0 0.34 0 0 Z " fill="#D1E9FB" transform="translate(140,344)"/>
<path d="M0 0 C2.76276177 0.52268466 5.3260876 1.10869587 8 2 C8 2.66 8 3.32 8 4 C8.66 4 9.32 4 10 4 C10 4.66 10 5.32 10 6 C6.00499382 4.6302836 3.19990508 2.74277578 0 0 Z " fill="#4787D2" transform="translate(283,71)"/>
<path d="M0 0 C2.97 0.495 2.97 0.495 6 1 C6 2.98 6 4.96 6 7 C5.34 6.67 4.68 6.34 4 6 C4.33 5.34 4.66 4.68 5 4 C4.360625 3.71125 3.72125 3.4225 3.0625 3.125 C1 2 1 2 0 0 Z " fill="#4D89D3" transform="translate(168,392)"/>
<path d="M0 0 C0.90492188 0.30357422 0.90492188 0.30357422 1.828125 0.61328125 C0.70738638 1.4523369 -0.41862047 2.28435956 -1.546875 3.11328125 C-2.17335938 3.57734375 -2.79984375 4.04140625 -3.4453125 4.51953125 C-5.171875 5.61328125 -5.171875 5.61328125 -7.171875 5.61328125 C-7.171875 4.95328125 -7.171875 4.29328125 -7.171875 3.61328125 C-2.92048515 -0.52001444 -2.92048515 -0.52001444 0 0 Z " fill="#DCF3FD" transform="translate(319.171875,376.38671875)"/>
<path d="M0 0 C1.98 0 3.96 0 6 0 C1.25 3.875 1.25 3.875 -1 5 C-0.67 3.35 -0.34 1.7 0 0 Z " fill="#3E80D1" transform="translate(157,292)"/>
<path d="M0 0 C3.14737182 0.69941596 6.02588876 1.76078698 9 3 C9 3.66 9 4.32 9 5 C6.03 4.01 3.06 3.02 0 2 C0 1.34 0 0.68 0 0 Z " fill="#538CD1" transform="translate(237,127)"/>
<path d="M0 0 C-1.75 2 -1.75 2 -4 4 C-5.32 4 -6.64 4 -8 4 C-7 1 -7 1 -4.5625 -0.25 C-2 -1 -2 -1 0 0 Z " fill="#94C0F1" transform="translate(198,95)"/>
<path d="M0 0 C1.32 0 2.64 0 4 0 C2.92598892 2.91517292 2.22189824 4.77810176 0 7 C0 4.69 0 2.38 0 0 Z " fill="#459DB7" transform="translate(480,443)"/>
<path d="M0 0 C3.24208567 0.35049575 4.61527704 0.56221181 6.8125 3.0625 C7.204375 3.701875 7.59625 4.34125 8 5 C7.67 5.66 7.34 6.32 7 7 C5.83040013 6.02433888 4.66438823 5.044375 3.5 4.0625 C2.8503125 3.51722656 2.200625 2.97195313 1.53125 2.41015625 C1.0259375 1.94480469 0.520625 1.47945313 0 1 C0 0.67 0 0.34 0 0 Z " fill="#C8E2F8" transform="translate(111,409)"/>
<path d="M0 0 C1.65 0 3.3 0 5 0 C2.63707344 2.52588702 1.33537489 3.88820837 -2 5 C-1.34 3.35 -0.68 1.7 0 0 Z " fill="#4987CE" transform="translate(140,304)"/>
<path d="M0 0 C1.65 0 3.3 0 5 0 C5.33 1.98 5.66 3.96 6 6 C3.97945196 4.35830472 1.97956942 2.69088222 0 1 C0 0.67 0 0.34 0 0 Z " fill="#4D89D3" transform="translate(419,273)"/>
<path d="M0 0 C2.64 0.33 5.28 0.66 8 1 C5.61426621 2.89213369 3.92824652 4.02391783 1 5 C0.67 3.35 0.34 1.7 0 0 Z " fill="#3E83D5" transform="translate(318,114)"/>
<path d="M0 0 C0.53625 0.226875 1.0725 0.45375 1.625 0.6875 C-3.79038462 3.76442308 -3.79038462 3.76442308 -6.75 3.375 C-7.554375 3.0346875 -7.554375 3.0346875 -8.375 2.6875 C-2.95961538 -0.38942308 -2.95961538 -0.38942308 0 0 Z " fill="#CCE1FA" transform="translate(298.375,92.3125)"/>
</svg>
