<svg xmlns="http://www.w3.org/2000/svg" xmlns:xlink="http://www.w3.org/1999/xlink" width="254" zoomAndPan="magnify" viewBox="0 0 190.5 195.749994" height="261" preserveAspectRatio="xMidYMid meet" version="1.2"><defs><clipPath id="895497baa8"><path d="M 0 0.132812 L 190 0.132812 L 190 195.367188 L 0 195.367188 Z M 0 0.132812 "/></clipPath><clipPath id="22128cb020"><path d="M 62 0.132812 L 121 0.132812 L 121 25 L 62 25 Z M 62 0.132812 "/></clipPath><clipPath id="9e4f61d8b9"><path d="M 60.371094 21 L 101 21 L 101 89.894531 L 60.371094 89.894531 Z M 60.371094 21 "/></clipPath><clipPath id="1e0065bcf9"><path d="M 106 21 L 146.394531 21 L 146.394531 89.894531 L 106 89.894531 Z M 106 21 "/></clipPath><clipPath id="d6d8381144"><path d="M 22 105.988281 L 189.253906 105.988281 L 189.253906 177 L 22 177 Z M 22 105.988281 "/></clipPath></defs><g id="04533be862"><g clip-rule="nonzero" clip-path="url(#895497baa8)"><path style=" stroke:none;fill-rule:nonzero;fill:#ffffff;fill-opacity:1;" d="M 0 0.132812 L 190 0.132812 L 190 195.367188 L 0 195.367188 Z M 0 0.132812 "/></g><g clip-rule="nonzero" clip-path="url(#22128cb020)"><path style=" stroke:none;fill-rule:nonzero;fill:#297bdc;fill-opacity:1;" d="M 81.269531 24.160156 L 120.875 7.179688 L 104.476562 0.441406 C 103.78125 0.15625 103.007812 0.15625 102.3125 0.441406 L 62.925781 16.625 Z M 81.269531 24.160156 "/></g><path style=" stroke:none;fill-rule:nonzero;fill:#297bdc;fill-opacity:1;" d="M 128.246094 10.207031 L 88.628906 27.183594 L 103.394531 33.246094 L 143.863281 16.625 Z M 128.246094 10.207031 "/><g clip-rule="nonzero" clip-path="url(#9e4f61d8b9)"><path style=" stroke:none;fill-rule:nonzero;fill:#297bdc;fill-opacity:1;" d="M 100.550781 38.230469 L 84.523438 31.644531 L 84.523438 44.113281 C 84.523438 45.683594 83.25 46.957031 81.679688 46.957031 C 80.109375 46.957031 78.835938 45.683594 78.835938 44.113281 L 78.835938 29.308594 L 60.371094 21.726562 L 60.371094 71.800781 C 60.371094 72.953125 61.070312 73.992188 62.136719 74.433594 L 100.550781 90.210938 Z M 100.550781 38.230469 "/></g><g clip-rule="nonzero" clip-path="url(#1e0065bcf9)"><path style=" stroke:none;fill-rule:nonzero;fill:#297bdc;fill-opacity:1;" d="M 106.238281 38.230469 L 106.238281 90.210938 L 144.652344 74.433594 C 145.71875 73.992188 146.417969 72.953125 146.417969 71.800781 L 146.417969 21.726562 Z M 106.238281 38.230469 "/></g><g clip-rule="nonzero" clip-path="url(#d6d8381144)"><path style=" stroke:none;fill-rule:nonzero;fill:#297bdc;fill-opacity:1;" d="M 186.699219 112.660156 C 184.226562 109.816406 180.273438 108.601562 176.609375 109.578125 L 146.019531 117.746094 C 146.042969 118.472656 146.015625 119.210938 145.953125 119.945312 C 145.1875 128.441406 138.78125 135.355469 130.367188 136.769531 L 128.4375 137.09375 C 117.355469 138.945312 106.101562 140.023438 94.789062 139.792969 L 85.59375 139.742188 C 82.773438 139.730469 80.503906 137.433594 80.519531 134.617188 C 80.535156 131.804688 82.816406 129.539062 85.621094 129.539062 L 85.648438 129.539062 L 94.84375 129.589844 C 105.425781 129.539062 116.242188 128.785156 126.75 127.027344 L 128.679688 126.703125 C 132.515625 126.0625 135.4375 122.902344 135.785156 119.035156 C 135.992188 116.742188 135.285156 114.511719 133.796875 112.753906 C 132.3125 110.992188 130.226562 109.925781 127.929688 109.753906 L 79.746094 106.035156 C 74.378906 105.574219 68.964844 107.023438 64.484375 109.976562 L 22.984375 137.335938 L 63.257812 170.457031 L 103.617188 176.09375 C 110.707031 177.089844 117.824219 175.320312 123.648438 171.167969 L 184.980469 127.316406 C 187.289062 125.65625 188.746094 123.191406 189.082031 120.367188 C 189.410156 117.546875 188.566406 114.8125 186.699219 112.660156 Z M 186.699219 112.660156 "/></g><path style=" stroke:none;fill-rule:nonzero;fill:#297bdc;fill-opacity:1;" d="M 1.539062 161.390625 C 0.0390625 163.21875 0.304688 165.921875 2.128906 167.421875 L 33.9375 193.582031 C 35.757812 195.082031 38.460938 194.820312 39.96875 192.996094 L 53.9375 176.011719 L 15.503906 144.410156 Z M 1.539062 161.390625 "/></g></svg>