<svg xmlns="http://www.w3.org/2000/svg" xmlns:xlink="http://www.w3.org/1999/xlink" width="350" zoomAndPan="magnify" viewBox="0 0 262.5 262.500001" height="350" preserveAspectRatio="xMidYMid meet" version="1.2"><defs><clipPath id="4218518435"><path d="M 0 0 L 262 0 L 262 262 L 0 262 Z M 0 0 "/></clipPath><clipPath id="c289eef5dc"><path d="M 54.644531 0 L 207.355469 0 C 237.535156 0 262 24.464844 262 54.644531 L 262 207.355469 C 262 237.535156 237.535156 262 207.355469 262 L 54.644531 262 C 24.464844 262 0 237.535156 0 207.355469 L 0 54.644531 C 0 24.464844 24.464844 0 54.644531 0 Z M 54.644531 0 "/></clipPath><clipPath id="52a6c6ed19"><path d="M 54.644531 0 L 207.355469 0 C 237.535156 0 262 24.464844 262 54.644531 L 262 207.355469 C 262 237.535156 237.535156 262 207.355469 262 L 54.644531 262 C 24.464844 262 0 237.535156 0 207.355469 L 0 54.644531 C 0 24.464844 24.464844 0 54.644531 0 Z M 54.644531 0 "/></clipPath><clipPath id="064d3a69e9"><rect x="0" width="262" y="0" height="262"/></clipPath><clipPath id="224b98d6c7"><path d="M 99 33.457031 L 158 33.457031 L 158 58 L 99 58 Z M 99 33.457031 "/></clipPath><clipPath id="97194c42ec"><path d="M 96.621094 55 L 137 55 L 137 123.285156 L 96.621094 123.285156 Z M 96.621094 55 "/></clipPath><clipPath id="1fdeda38bb"><path d="M 142 55 L 182.707031 55 L 182.707031 123.285156 L 142 123.285156 Z M 142 55 "/></clipPath><clipPath id="6ea77fce88"><path d="M 59 139.390625 L 225.597656 139.390625 L 225.597656 210 L 59 210 Z M 59 139.390625 "/></clipPath><clipPath id="b881b0e321"><path d="M 36.207031 177 L 91 177 L 91 228.46875 L 36.207031 228.46875 Z M 36.207031 177 "/></clipPath></defs><g id="9b9909864f"><g clip-rule="nonzero" clip-path="url(#4218518435)"><g clip-rule="nonzero" clip-path="url(#c289eef5dc)"><g transform="matrix(1,0,0,1,0,-0.00000000000000941)"><g clip-path="url(#064d3a69e9)"><g clip-rule="nonzero" clip-path="url(#52a6c6ed19)"><rect x="0" width="262" height="262" y="0" style="fill:#297bdc;fill-opacity:1;stroke:none;"/></g></g></g></g></g><g clip-rule="nonzero" clip-path="url(#224b98d6c7)"><path style=" stroke:none;fill-rule:nonzero;fill:#ffffff;fill-opacity:1;" d="M 117.535156 57.5 L 157.167969 40.507812 L 140.757812 33.765625 C 140.066406 33.484375 139.289062 33.484375 138.59375 33.765625 L 99.179688 49.960938 Z M 117.535156 57.5 "/></g><path style=" stroke:none;fill-rule:nonzero;fill:#ffffff;fill-opacity:1;" d="M 164.546875 43.539062 L 124.902344 60.527344 L 139.675781 66.597656 L 180.175781 49.960938 Z M 164.546875 43.539062 "/><g clip-rule="nonzero" clip-path="url(#97194c42ec)"><path style=" stroke:none;fill-rule:nonzero;fill:#ffffff;fill-opacity:1;" d="M 136.832031 71.582031 L 120.792969 64.992188 L 120.792969 77.46875 C 120.792969 79.039062 119.519531 80.316406 117.945312 80.316406 C 116.375 80.316406 115.097656 79.039062 115.097656 77.46875 L 115.097656 62.65625 L 96.625 55.066406 L 96.625 105.175781 C 96.625 106.332031 97.320312 107.371094 98.390625 107.808594 L 136.832031 123.601562 Z M 136.832031 71.582031 "/></g><g clip-rule="nonzero" clip-path="url(#1fdeda38bb)"><path style=" stroke:none;fill-rule:nonzero;fill:#ffffff;fill-opacity:1;" d="M 142.523438 71.582031 L 142.523438 123.601562 L 180.964844 107.808594 C 182.03125 107.371094 182.730469 106.332031 182.730469 105.175781 L 182.730469 55.066406 Z M 142.523438 71.582031 "/></g><g clip-rule="nonzero" clip-path="url(#6ea77fce88)"><path style=" stroke:none;fill-rule:nonzero;fill:#ffffff;fill-opacity:1;" d="M 223.042969 146.066406 C 220.566406 143.21875 216.609375 142.003906 212.945312 142.980469 L 182.332031 151.15625 C 182.355469 151.882812 182.332031 152.621094 182.265625 153.355469 C 181.5 161.859375 175.089844 168.777344 166.671875 170.195312 L 164.738281 170.519531 C 153.648438 172.371094 142.382812 173.449219 131.066406 173.21875 L 121.863281 173.167969 C 119.042969 173.15625 116.769531 170.855469 116.785156 168.035156 C 116.800781 165.226562 119.082031 162.957031 121.890625 162.957031 L 121.921875 162.957031 L 131.121094 163.007812 C 141.710938 162.957031 152.535156 162.203125 163.050781 160.445312 L 164.980469 160.121094 C 168.820312 159.476562 171.746094 156.316406 172.089844 152.445312 C 172.296875 150.152344 171.59375 147.917969 170.101562 146.160156 C 168.613281 144.398438 166.527344 143.332031 164.230469 143.15625 L 116.011719 139.433594 C 110.640625 138.972656 105.222656 140.425781 100.738281 143.378906 L 59.210938 170.761719 L 99.511719 203.902344 L 139.898438 209.546875 C 146.996094 210.542969 154.117188 208.773438 159.945312 204.613281 L 221.320312 160.730469 C 223.632812 159.070312 225.089844 156.601562 225.425781 153.777344 C 225.753906 150.953125 224.910156 148.21875 223.042969 146.066406 Z M 223.042969 146.066406 "/></g><g clip-rule="nonzero" clip-path="url(#b881b0e321)"><path style=" stroke:none;fill-rule:nonzero;fill:#ffffff;fill-opacity:1;" d="M 37.746094 194.832031 C 36.25 196.660156 36.511719 199.363281 38.339844 200.867188 L 70.167969 227.042969 C 71.992188 228.546875 74.699219 228.285156 76.203125 226.457031 L 90.183594 209.464844 L 51.726562 177.835938 Z M 37.746094 194.832031 "/></g></g></svg>